<svg width="72" height="44" viewBox="0 0 72 44" fill="none" xmlns="http://www.w3.org/2000/svg">
<g clip-path="url(#clip0_455_3056)">
<path d="M67.5172 38.9542C68.0005 36.7093 68.4794 34.5045 68.9377 32.2952C69.0291 31.854 69.2092 31.6523 69.676 31.6826C70.2856 31.7221 70.8998 31.6999 71.5116 31.6873C71.8735 31.6798 72.0294 31.7842 71.9215 32.1942C70.9331 35.9519 69.953 39.7119 68.977 43.4729C68.8923 43.7996 68.7363 43.9572 68.3909 43.9431C67.8671 43.9215 67.3386 43.8988 66.818 43.946C66.2441 43.9982 65.9943 43.7991 65.8627 43.1979C65.4142 41.1501 64.9006 39.1173 64.41 37.0794C64.3811 36.9595 64.3359 36.8438 64.2782 36.6634C64.0428 36.9358 64.025 37.2411 63.961 37.5134C63.4975 39.4842 63.037 41.4558 62.603 43.4335C62.5212 43.8064 62.3692 43.9521 62.0076 43.9426C61.3783 43.9262 60.7481 43.9223 60.1191 43.9413C59.7609 43.9521 59.583 43.8134 59.494 43.4517C58.5825 39.7465 57.6585 36.0447 56.7409 32.341C56.5897 31.7312 56.6183 31.6964 57.2281 31.6913C57.8226 31.6863 58.4189 31.717 59.0114 31.6799C59.4585 31.6519 59.5713 31.8944 59.6488 32.2705C60.0932 34.4277 60.5504 36.5821 61.006 38.7368C61.0531 38.9596 61.1181 39.1783 61.2591 39.4055C61.5735 37.9637 61.8897 36.5225 62.2015 35.0802C62.4172 34.0827 62.6347 33.0853 62.834 32.0843C62.8905 31.8006 63.0273 31.689 63.2979 31.6915C63.9099 31.697 64.5227 31.7089 65.1339 31.6839C65.5082 31.6685 65.6606 31.8393 65.7355 32.1922C66.1817 34.2941 66.6397 36.3931 67.095 38.4928C67.1593 38.7896 67.2307 39.0849 67.3284 39.5093C67.413 39.2628 67.4594 39.1278 67.5172 38.9542Z" fill="white"/>
<path d="M56.0571 39.9491C55.6712 41.0916 55.2491 42.1625 54.3416 42.957C53.7104 43.5096 53.0519 43.8744 52.1747 43.8532C50.2708 43.8071 48.3631 43.7809 46.4609 43.8547C45.1732 43.9047 44.2994 43.3156 43.5833 42.3269C43.4482 42.1403 43.2956 41.9508 43.2212 41.737C42.8629 40.7069 42.4114 39.7995 41.4958 39.104C40.7832 38.5628 40.8894 37.6202 41.5465 36.996C41.7845 36.7698 41.7925 36.4898 41.8316 36.2153C42.2295 33.4271 43.6463 31.3562 46.0432 30.0253C46.4916 29.7763 46.7495 29.3139 47.258 29.1482C47.8538 28.9542 48.479 28.9021 49.0661 28.6378C49.4875 28.4481 49.906 28.8787 50.3641 28.9325C50.9789 29.0048 51.6693 29.0228 52.031 29.7294C52.0846 29.8342 52.2687 29.8676 52.3916 29.9357C54.9371 31.3449 56.3322 33.5572 56.7037 36.4769C56.7321 36.6995 56.7672 36.8762 56.9493 37.0354C57.5161 37.5314 57.5869 38.1185 57.2078 38.809C56.9403 39.2963 56.4955 39.5898 56.0571 39.9491ZM42.3467 38.7313C43.9843 39.7895 45.7034 40.5613 47.7023 40.4677C48.6794 40.4219 49.6659 40.3871 50.6382 40.4704C52.4745 40.6276 54.0663 39.9494 55.6228 39.0958C55.915 38.9355 56.2059 38.7564 56.405 38.4734C56.5922 38.2076 56.6531 37.9221 56.2862 37.7694C55.9689 37.6374 55.9097 37.4083 55.8916 37.0946C55.7503 34.6579 54.7828 32.6717 52.8175 31.2467C52.5141 31.0267 52.2103 30.783 51.8119 30.7548C51.6726 31.0904 51.6829 31.4135 51.6721 31.7359C51.602 33.8171 51.5228 35.8979 51.4581 37.9793C51.4476 38.3159 51.3327 38.4648 50.9917 38.464C50.6205 38.4633 50.551 38.2533 50.5711 37.9428C50.5769 37.8532 50.5793 37.7634 50.583 37.6737C50.6779 35.3425 50.7796 33.0117 50.864 30.6801C50.8919 29.9097 50.8682 29.9008 50.1425 29.8166C50.0115 29.8014 49.8685 29.7263 49.7354 29.8479C49.6394 30.0267 49.68 30.2282 49.679 30.422C49.6743 31.3921 49.6712 32.3624 49.6775 33.3324C49.6796 33.6551 49.6398 33.8963 49.2359 33.896C48.8395 33.8957 48.7804 33.6664 48.7834 33.338C48.7926 32.3859 48.7898 31.4336 48.794 30.4814C48.7971 29.7998 48.6517 29.7019 48.0179 29.8681C47.6389 29.9675 47.6414 30.2242 47.6514 30.5244C47.7329 32.9825 47.8089 35.4407 47.8949 37.8985C47.9075 38.2577 47.8342 38.4977 47.4225 38.4913C47.0098 38.485 47.0088 38.1911 47.0009 37.8931C46.9597 36.3317 46.9261 34.77 46.8735 33.2088C46.846 32.3917 46.7851 31.5759 46.7375 30.7302C46.62 30.7572 46.5495 30.7606 46.491 30.7895C46.3179 30.8747 46.1405 30.956 45.9805 31.0635C43.9447 32.4323 42.8243 34.3608 42.6373 36.857C42.6162 37.1376 42.6506 37.4181 42.3503 37.6122C41.7341 38.0107 41.7345 38.1832 42.3467 38.7313ZM44.9763 41.0173C44.5723 40.8681 44.1682 40.7188 43.7345 40.5587C44.0866 42.0967 45.0792 42.9265 46.5205 42.9298C48.3738 42.9341 50.2272 42.9355 52.0805 42.9355C53.3549 42.9355 54.5812 41.8757 54.8482 40.5093C54.6183 40.5997 54.4126 40.6884 54.202 40.7617C53.5262 40.9968 52.8788 41.3479 52.1455 41.3623C50.7125 41.3905 49.2792 41.4207 47.8461 41.4156C46.9048 41.4124 45.9569 41.4009 44.9763 41.0173Z" fill="white"/>
<path d="M30.7223 35.3275C30.7233 36.5794 30.7233 36.5788 31.8816 36.5775C32.5107 36.5767 33.1402 36.5924 33.7688 36.5746C34.1319 36.5643 34.276 36.7216 34.2712 37.0816C34.2645 37.5843 34.2641 38.0874 34.2787 38.5898C34.2903 38.9942 34.0948 39.1228 33.7295 39.115C32.9083 39.0977 32.0865 39.1113 31.2657 39.0872C30.8659 39.0756 30.7055 39.2136 30.7129 39.6447C30.7336 40.8833 30.7046 42.1229 30.7266 43.3615C30.7349 43.8223 30.5991 44.0147 30.1293 43.9877C29.5369 43.9537 28.9411 43.9672 28.3473 43.9825C27.9767 43.9922 27.8146 43.8623 27.8155 43.4553C27.8243 39.7202 27.8229 35.9852 27.8125 32.2503C27.8114 31.8465 27.9669 31.7239 28.3418 31.7259C30.3515 31.7367 32.3613 31.7365 34.371 31.7237C34.7672 31.7211 34.9507 31.846 34.9289 32.2792C34.9036 32.7806 34.905 33.2853 34.9292 33.7869C34.95 34.2178 34.7517 34.3631 34.368 34.3613C33.4418 34.3567 32.5156 34.3629 31.5894 34.3621C30.7216 34.3613 30.7216 34.3598 30.7223 35.3275Z" fill="white"/>
<path d="M38.6435 32.7002C38.6423 35.3934 38.6512 38.0335 38.6315 40.6734C38.6278 41.1635 38.7713 41.3398 39.2578 41.3228C40.2005 41.2897 41.1453 41.3219 42.0889 41.3061C42.4918 41.2993 42.6603 41.455 42.6398 41.8774C42.6162 42.3611 42.6165 42.8479 42.6392 43.3316C42.6597 43.7638 42.5149 43.9427 42.071 43.9384C40.1485 43.9198 38.2257 43.9207 36.3031 43.9324C35.8932 43.935 35.7486 43.7748 35.752 43.3601C35.7651 41.8156 35.7559 40.2711 35.7555 38.7266C35.7548 36.6252 35.754 34.524 35.7542 32.4227C35.7543 31.6954 35.7556 31.6944 36.4398 31.6908C36.8593 31.6885 37.2788 31.6899 37.6983 31.6896C38.6503 31.6888 38.6503 31.6888 38.6435 32.7002Z" fill="white"/>
<path d="M43.7481 34.2015C44.0914 33.4416 44.5365 32.8017 45.0421 32.1998C45.2338 31.9718 45.3942 31.9571 45.6154 32.1468C45.8456 32.3443 45.8994 32.5133 45.6762 32.7698C45.1962 33.321 44.8133 33.9436 44.4867 34.6031C44.3521 34.8748 44.3007 35.2742 43.8335 35.0508C43.3714 34.8297 43.6351 34.5264 43.7481 34.2015Z" fill="white"/>
<path d="M53.539 32.3506C54.12 32.9638 54.5096 33.6524 54.8087 34.4055C54.9345 34.7222 54.8648 34.9052 54.5719 35.0474C54.2391 35.209 54.144 34.9862 54.0387 34.7424C53.7486 34.0709 53.4194 33.4252 52.9254 32.879C52.7586 32.6945 52.5219 32.4949 52.8204 32.2038C53.116 31.9154 53.3135 32.0898 53.539 32.3506Z" fill="white"/>
<path d="M1.50652 43.5396C1.11048 43.5398 0.733599 43.541 0.356725 43.5402C0.0612247 43.5395 8.40185e-05 43.4627 6.531e-05 43.0895C-0.000109008 39.4083 0.000122629 35.7269 0.000273562 32.0457C0.000279428 31.9023 -0.000763007 31.7587 0.00118378 31.6154C0.00404783 31.4043 0.0945017 31.2943 0.260334 31.2765C0.292052 31.273 0.324167 31.275 0.356099 31.275C2.47682 31.275 4.59755 31.2746 6.71826 31.2753C7.06712 31.2754 7.11601 31.3387 7.11635 31.7725C7.11694 32.5296 7.11835 33.2866 7.1181 34.0435C7.118 34.3789 7.0619 34.4508 6.79293 34.4512C5.54733 34.4528 4.30172 34.4522 3.05611 34.4527C2.783 34.4528 2.78269 34.453 2.78246 34.8011C2.7823 35.0641 2.79131 35.3276 2.78081 35.5899C2.77226 35.8032 2.84254 35.8622 3.00576 35.8613C4.19385 35.8551 5.38199 35.8579 6.5701 35.8581C6.91093 35.8582 6.99247 35.9518 6.989 36.3725C6.98308 37.0892 7.00494 37.8063 6.96763 38.5228C6.95249 38.8133 6.9031 38.889 6.66832 38.8905C6.22759 38.8933 5.78684 38.8887 5.34609 38.888C4.57958 38.8871 3.81305 38.8863 3.04652 38.8863C2.80371 38.8863 2.78487 38.9099 2.78373 39.2123C2.78265 39.4992 2.79341 39.7867 2.78034 40.0727C2.77037 40.2909 2.82767 40.3613 3.00605 40.36C4.25163 40.3514 5.49725 40.355 6.74285 40.3547C7.085 40.3546 7.11669 40.3926 7.11701 40.8166C7.1176 41.5975 7.11756 42.3784 7.11686 43.1593C7.11658 43.4727 7.06493 43.54 6.81464 43.5401C5.05166 43.5408 3.28868 43.54 1.50652 43.5396Z" fill="white"/>
<path d="M15.7476 39.1972C15.8064 40.5674 15.5129 41.7156 14.678 42.5497C14.2386 42.9888 13.7459 43.2711 13.2094 43.4141C12.3943 43.6314 11.5837 43.6135 10.7856 43.2866C9.59512 42.799 8.90042 41.7174 8.67392 40.0864C8.66227 40.0025 8.64841 39.9188 8.64133 39.8341C8.6154 39.5238 8.69723 39.3958 8.92647 39.3949C9.5764 39.3926 10.2264 39.3999 10.8762 39.3884C11.05 39.3854 11.1404 39.4675 11.154 39.6959C11.1966 40.4099 11.644 40.7578 12.0981 40.796C12.3812 40.8198 12.6552 40.7739 12.901 40.5669C13.1372 40.3682 13.2614 40.0847 13.2283 39.7053C13.1985 39.364 13.02 39.1783 12.8038 39.0541C12.4662 38.86 12.1049 38.7763 11.7474 38.6787C11.2645 38.5467 10.7849 38.4051 10.3217 38.1698C8.97502 37.4859 8.58559 35.8988 8.79677 34.3674C8.97712 33.0596 9.58895 32.2046 10.4906 31.741C11.6721 31.1335 12.8663 31.1032 14.0118 31.893C14.8518 32.4722 15.3136 33.4473 15.4482 34.6984C15.4556 34.7675 15.4673 34.8359 15.4719 34.9053C15.4863 35.122 15.3974 35.2733 15.2344 35.2747C14.5554 35.2806 13.8765 35.2788 13.1976 35.2764C13.0515 35.2758 13 35.148 12.9883 34.9718C12.9535 34.4421 12.703 34.1026 12.3082 34.0638C12.1124 34.0445 11.9141 34.0242 11.7215 34.1093C11.4352 34.2357 11.2782 34.4699 11.2662 34.7896C11.2516 35.1821 11.3505 35.392 11.6607 35.5715C12.0246 35.7823 12.4145 35.8767 12.7981 35.9973C13.261 36.1427 13.721 36.2979 14.1651 36.5309C15.0728 37.0074 15.6402 37.843 15.7476 39.1972Z" fill="white"/>
<path d="M21.9291 40.2157C21.9313 41.1825 21.935 42.1205 21.9352 43.0584C21.9353 43.4845 21.8647 43.5661 21.4944 43.5669C20.5662 43.5692 19.638 43.5689 18.7099 43.5671C18.3603 43.5665 18.2927 43.4892 18.2927 43.0986C18.2927 41.8163 18.2685 40.5345 18.2827 39.2516C18.3045 37.261 18.2715 35.2696 18.262 33.2786C18.2592 32.6785 18.2651 32.6631 18.7687 32.4487C19.6371 32.079 20.5066 31.7127 21.3774 31.3501C21.787 31.1796 21.9283 31.2873 21.9287 31.7732C21.9306 34.5778 21.9293 37.3824 21.9291 40.2157Z" fill="white"/>
<path d="M38.6062 27.1246C36.1198 24.256 33.6404 21.4332 30.9851 18.5845C30.8605 19.7559 30.0782 20.3251 29.4292 20.9865C27.1946 23.2636 24.9535 25.534 22.7094 27.8012C21.6448 28.8768 20.0465 28.9025 19.031 27.8756C18.0173 26.8506 18.0361 25.1465 19.0931 24.0541C21.3491 21.7224 23.6211 19.4071 25.8714 17.0696C26.5269 16.3886 27.1934 15.7754 28.1876 15.857C28.2646 15.6194 28.1195 15.5372 28.0302 15.4438C26.7437 14.0981 25.4552 12.756 24.055 11.5299C23.3373 10.9015 22.4741 10.6311 21.6261 10.3015C21.3895 10.2095 21.2628 10.3622 21.1285 10.4976C20.785 10.8443 20.4201 10.8613 19.9779 10.6821C17.4533 9.65947 16.1002 6.698 16.933 4.02792C17.0794 3.55841 17.2875 3.59904 17.5613 3.85203C18.2239 4.46431 18.889 5.07543 19.521 5.72015C19.8194 6.02454 20.0271 5.9946 20.2978 5.71001C20.9562 5.01788 21.6293 4.34047 22.3248 3.62805C21.5291 2.59977 20.5199 1.80796 19.7539 0.713019C20.7498 0.080639 21.7613 -0.0913185 22.8252 0.0423467C24.443 0.245599 25.7333 1.01109 26.6038 2.45925C26.6495 2.53542 26.7044 2.60613 26.7583 2.67684C27.5558 3.72471 27.5588 3.84936 26.7516 4.87157C26.6312 5.02402 26.585 5.18086 26.5934 5.36633C26.6491 6.58647 26.8138 7.72639 27.8102 8.61563C28.7712 9.4733 29.6201 10.4633 30.5225 11.3909C30.7922 11.6681 31.076 11.9306 31.4045 12.2495C31.5209 11.6932 31.6195 11.1823 32.2349 11.1072C32.7778 11.041 33.1532 11.374 33.6457 11.8281C34.2425 11.1625 34.8033 10.4995 35.4028 9.87586C37.037 8.17595 38.6843 6.4894 40.3352 4.80651C40.5714 4.56574 40.738 4.32931 40.7061 3.96593C40.6742 3.60313 40.8333 3.31034 41.0874 3.05911C41.7047 2.44884 42.3147 1.83091 42.9254 1.21376C43.0408 1.09725 43.1674 1.01331 43.3285 0.978951C44.0978 0.814718 44.8662 0.645246 45.6544 0.60438C46.1261 0.579923 46.1857 0.71398 46.1515 1.21248C46.0296 2.99156 45.1344 4.27258 43.8058 5.32914C43.3871 5.66209 43.0015 5.95434 42.4506 5.89715C42.1987 5.87101 42.0248 6.00538 41.8568 6.17761C40.1112 7.96629 38.3578 9.74688 36.6172 11.5405C36.052 12.1228 35.4066 12.6243 34.9036 13.2851C35.1108 13.7712 35.6652 14.0328 35.6441 14.6247C35.6261 15.1249 35.4053 15.2812 34.4356 15.4152C35.2996 16.2398 36.1246 17.0226 36.9448 17.8106C38.9629 19.749 41.0338 21.6271 43.0968 23.5143C44.2639 24.582 44.3493 26.4111 43.3528 27.5971C42.3761 28.7597 40.6371 28.9175 39.4237 27.9362C39.137 27.7045 38.8938 27.4158 38.6062 27.1246ZM23.6806 25.6038C25.6463 23.6092 27.6129 21.6158 29.5763 19.619C29.8504 19.3404 30.0936 19.0553 30.1 18.6068C30.1121 17.7639 29.5826 17.3364 28.9577 17.0181C28.2993 16.6827 27.5996 16.5867 27.0025 17.1628C26.4679 17.6786 25.9817 18.2471 25.4637 18.7816C23.5397 20.7677 21.6038 22.7417 19.6881 24.7364C18.9529 25.502 18.9514 26.5439 19.6332 27.2372C20.2981 27.9133 21.3471 27.9048 22.0874 27.1969C22.6119 26.6952 23.1146 26.1693 23.6806 25.6038ZM41.0128 22.7684C38.9479 20.9631 36.9752 19.053 34.977 17.1718C32.2158 14.5721 29.6672 11.7529 26.9992 9.05724C26.3709 8.42229 25.9367 7.69158 25.8518 6.75935C25.8309 6.53068 25.8695 6.25352 25.6708 6.04024C24.5566 7.22429 23.4512 8.39901 22.329 9.5916C23.8861 9.95957 25.0031 11.1494 26.1471 12.2762C30.1386 16.2081 33.893 20.3733 37.5707 24.6128C38.2684 25.4172 38.9681 26.2204 39.6875 27.0042C40.0395 27.3878 40.4644 27.6801 41.003 27.7181C41.8472 27.7777 42.5085 27.456 42.934 26.6907C43.3515 25.94 43.2783 25.0594 42.7384 24.372C42.2622 23.7657 41.6263 23.3356 41.0128 22.7684ZM22.6393 2.60616C22.8555 2.84093 23.0702 3.07717 23.2884 3.31004C23.4821 3.51678 23.4817 3.7022 23.2737 3.90922C22.2321 4.94576 21.1943 5.9864 20.1618 7.03245C19.9272 7.27012 19.7436 7.20718 19.5386 6.99715C19.0683 6.51536 18.5949 6.03642 18.1106 5.5696C17.9704 5.43444 17.8466 5.23952 17.6093 5.24321C17.3966 7.02241 18.2498 8.64475 19.8454 9.61735C20.2933 9.89036 20.5999 9.87386 20.9799 9.48032C22.5555 7.84873 24.1549 6.24124 25.7569 4.63679C26.5283 3.86419 26.5152 3.89212 25.945 2.97289C25.2404 1.83717 24.2419 1.1832 22.9716 0.978546C22.458 0.895817 21.9053 0.787563 21.3729 1.17989C21.7307 1.72007 22.2044 2.09547 22.6393 2.60616ZM43.7258 4.14326C43.9787 3.8956 44.2271 3.6429 44.4853 3.40133C44.9953 2.92421 45.0153 2.28808 45.1004 1.65669C44.2604 1.57685 43.6098 1.8034 43.1049 2.32006C42.6962 2.73822 42.2936 3.16314 41.8725 3.56774C41.6392 3.7919 41.5533 4.01172 41.7018 4.32611C41.8581 4.65722 41.9887 4.944 42.4342 4.97773C43.061 5.02518 43.2996 4.51771 43.7258 4.14326ZM38.3108 8.17636C36.9643 9.57029 35.6177 10.9642 34.2711 12.3582C34.2931 12.3803 34.315 12.4024 34.3368 12.4245C36.6061 10.0394 38.8755 7.65423 41.1447 5.2691C41.1474 5.27099 41.1501 5.27289 41.1528 5.27479C40.2239 6.22502 39.295 7.17525 38.3108 8.17636ZM34.337 14.423C34.6498 14.4357 34.4864 14.2651 34.4127 14.1763C33.9042 13.5635 33.3913 12.9544 32.8688 12.3543C32.7582 12.2273 32.6252 12.094 32.4265 12.119C32.2334 13.0169 33.0019 13.9629 34.337 14.423Z" fill="white"/>
<path d="M23.6053 23.9833C23.3322 24.2501 23.0712 24.2803 22.8585 23.9942C22.6716 23.7429 22.816 23.5339 23.0074 23.3385C24.6319 21.68 26.2517 20.0164 27.8732 18.3547C27.9474 18.2786 28.0197 18.1992 28.1014 18.1327C28.2756 17.9911 28.4591 17.9916 28.6276 18.1381C28.8191 18.3047 28.8333 18.5137 28.6908 18.7136C28.5782 18.8716 28.4374 19.0097 28.302 19.1492C26.7464 20.752 25.1892 22.3532 23.6053 23.9833Z" fill="white"/>
<path d="M37.684 24.0972C36.2022 22.6669 34.8792 21.1333 33.5167 19.639C30.6706 16.5178 27.7752 13.4464 24.7972 10.4574C24.5295 10.1887 24.0845 9.94183 24.1869 9.51876C24.3031 9.0395 24.8317 8.96938 25.2373 8.81728C25.6961 8.64528 26.0126 8.92572 26.3052 9.21324C27.354 10.2441 28.3951 11.2832 29.4348 12.3236C32.5794 15.4703 35.722 18.619 38.8651 21.7672C39.0153 21.9177 39.1653 22.0687 39.3106 22.2243C39.92 22.8771 39.9734 23.3007 39.5212 23.8687C38.9625 24.5706 38.4679 24.6396 37.684 24.0972ZM29.5593 14.9089C32.0942 17.6605 34.6288 20.4122 37.1642 23.1633C37.4647 23.4894 37.7666 23.8153 38.1526 24.0396C38.6564 24.3322 38.9763 24.0078 39.2836 23.672C39.5783 23.3501 39.6117 22.997 39.3133 22.6632C39.0421 22.3597 38.7436 22.0818 38.4559 21.7939C34.4236 17.76 30.3914 13.726 26.3572 9.6941C26.195 9.53207 26.0262 9.37025 25.8376 9.2447C25.5313 9.04088 24.8336 9.15942 24.6395 9.47711C24.4066 9.85819 24.8055 10.015 24.987 10.2041C26.4839 11.7643 27.9975 13.3075 29.5593 14.9089Z" fill="white"/>
<path d="M42.0675 24.8552C42.5716 25.3625 42.6946 25.9313 42.4194 26.549C42.1742 27.0997 41.7305 27.3893 41.1278 27.3855C40.5275 27.3818 40.0945 27.1029 39.8513 26.5357C39.6081 25.9686 39.7742 25.2999 40.2519 24.882C40.7732 24.4261 41.3468 24.4094 42.0675 24.8552Z" fill="white"/>
</g>
<defs>
<clipPath id="clip0_455_3056">
<rect width="72" height="44" fill="white"/>
</clipPath>
</defs>
</svg>
