<svg width="290" height="173" viewBox="0 0 290 173" fill="none" xmlns="http://www.w3.org/2000/svg">
<g clip-path="url(#clip0_455_3151)">
<path d="M8.37533 170.32C6.78458 170.321 5.2708 170.325 3.75705 170.322C2.57013 170.319 2.32456 170.019 2.32448 168.56C2.32378 154.17 2.32471 139.779 2.32532 125.389C2.32534 124.828 2.32115 124.267 2.32897 123.707C2.34048 122.882 2.7038 122.452 3.36988 122.382C3.49728 122.369 3.62627 122.376 3.75453 122.376C12.2726 122.376 20.7908 122.375 29.3089 122.377C30.7101 122.378 30.9065 122.625 30.9078 124.321C30.9102 127.281 30.9159 130.24 30.9149 133.199C30.9145 134.51 30.6891 134.791 29.6088 134.792C24.6057 134.799 19.6025 134.796 14.5994 134.798C13.5024 134.799 13.5012 134.799 13.5003 136.16C13.4996 137.188 13.5358 138.218 13.4936 139.244C13.4593 140.077 13.7416 140.308 14.3972 140.305C19.1693 140.28 23.9416 140.291 28.7138 140.292C30.0827 140.292 30.4103 140.658 30.3963 142.303C30.3725 145.105 30.4603 147.908 30.3105 150.709C30.2497 151.844 30.0513 152.14 29.1083 152.146C27.338 152.157 25.5677 152.139 23.7974 152.136C20.7186 152.133 17.6398 152.13 14.5609 152.13C13.5856 152.13 13.51 152.222 13.5054 153.404C13.5011 154.525 13.5443 155.649 13.4918 156.767C13.4517 157.62 13.6819 157.895 14.3984 157.89C19.4014 157.857 24.4046 157.871 29.4076 157.87C30.7819 157.869 30.9092 158.018 30.9105 159.675C30.9129 162.728 30.9127 165.78 30.9099 168.833C30.9088 170.058 30.7013 170.321 29.696 170.322C22.6148 170.325 15.5336 170.321 8.37533 170.32Z" fill="white"/>
<path d="M65.5464 154.39C65.791 159.939 64.5698 164.589 61.0953 167.968C59.2666 169.746 57.2164 170.889 54.9837 171.468C51.5917 172.349 48.2186 172.276 44.8975 170.952C39.9434 168.977 37.0524 164.597 36.1099 157.991C36.0614 157.651 36.0037 157.313 35.9743 156.97C35.8664 155.713 36.2069 155.194 37.1608 155.191C39.8655 155.182 42.5703 155.211 45.2744 155.165C45.9977 155.152 46.3737 155.485 46.4305 156.41C46.6078 159.302 48.4698 160.711 50.3592 160.865C51.5372 160.962 52.6775 160.776 53.7004 159.937C54.6832 159.133 55.2003 157.984 55.0623 156.448C54.9382 155.066 54.1957 154.314 53.296 153.811C51.8909 153.024 50.3876 152.685 48.9 152.29C46.8904 151.756 44.8944 151.182 42.9667 150.229C37.3629 147.459 35.7423 141.032 36.6211 134.829C37.3716 129.533 39.9177 126.07 43.6696 124.193C48.5864 121.732 53.5559 121.609 58.3227 124.808C61.8186 127.154 63.7403 131.103 64.3003 136.17C64.3313 136.45 64.3798 136.727 64.399 137.008C64.4588 137.886 64.0889 138.498 63.4106 138.504C60.5852 138.528 57.7597 138.521 54.9347 138.511C54.3268 138.509 54.1123 137.991 54.0638 137.277C53.9188 135.132 52.8763 133.757 51.2336 133.6C50.4186 133.522 49.5936 133.439 48.7921 133.784C47.6006 134.296 46.9472 135.245 46.8974 136.539C46.8367 138.129 47.2481 138.979 48.5392 139.706C50.0535 140.56 51.676 140.942 53.2724 141.43C55.1985 142.019 57.1129 142.648 58.9608 143.592C62.738 145.521 65.0991 148.906 65.5464 154.39Z" fill="white"/>
<path d="M85.3476 157.326C85.3565 161.106 85.3712 164.773 85.3721 168.439C85.3725 170.105 85.0888 170.423 83.6015 170.427C79.8736 170.435 76.1452 170.434 72.4173 170.427C71.013 170.425 70.7415 170.123 70.7415 168.596C70.7415 163.583 70.6446 158.572 70.7015 153.558C70.7892 145.776 70.6564 137.992 70.6184 130.209C70.6071 127.863 70.6307 127.803 72.6533 126.965C76.1414 125.519 79.6341 124.087 83.1319 122.67C84.7768 122.004 85.3442 122.424 85.3459 124.324C85.3535 135.287 85.3485 146.251 85.3476 157.326Z" fill="white"/>
<path d="M122.262 138.169C122.266 143.063 122.266 143.06 126.918 143.055C129.445 143.052 131.973 143.113 134.498 143.044C135.957 143.004 136.536 143.618 136.516 145.026C136.489 146.991 136.488 148.958 136.546 150.922C136.593 152.503 135.808 153.005 134.341 152.975C131.042 152.907 127.741 152.96 124.444 152.866C122.839 152.82 122.194 153.36 122.224 155.045C122.307 159.887 122.191 164.733 122.279 169.574C122.312 171.376 121.767 172.128 119.88 172.022C117.501 171.89 115.107 171.942 112.722 172.002C111.234 172.04 110.583 171.532 110.586 169.941C110.621 155.341 110.616 140.74 110.574 126.14C110.57 124.561 111.194 124.082 112.7 124.09C120.772 124.132 128.845 124.131 136.917 124.081C138.509 124.071 139.246 124.559 139.158 126.253C139.056 128.213 139.062 130.186 139.159 132.147C139.243 133.831 138.446 134.399 136.905 134.392C133.185 134.374 129.465 134.398 125.744 134.395C122.259 134.392 122.259 134.386 122.262 138.169Z" fill="white"/>
<path d="M155.819 128.067C155.814 138.595 155.85 148.916 155.771 159.235C155.756 161.151 156.333 161.84 158.287 161.774C162.073 161.644 165.868 161.77 169.658 161.708C171.276 161.682 171.953 162.291 171.871 163.942C171.776 165.833 171.777 167.736 171.869 169.626C171.951 171.316 171.369 172.015 169.586 171.999C161.864 171.926 154.141 171.929 146.419 171.975C144.772 171.985 144.191 171.359 144.205 169.738C144.258 163.7 144.221 157.663 144.219 151.625C144.217 143.411 144.213 135.197 144.214 126.983C144.215 124.14 144.22 124.136 146.968 124.121C148.653 124.113 150.338 124.118 152.023 124.117C155.847 124.114 155.847 124.114 155.819 128.067Z" fill="white"/>
<path d="M221.146 159.622C219.915 163.168 218.569 166.493 215.674 168.959C213.661 170.674 211.56 171.807 208.762 171.741C202.689 171.598 196.604 171.517 190.537 171.746C186.43 171.901 183.642 170.072 181.358 167.003C180.927 166.424 180.44 165.835 180.203 165.172C179.06 161.974 177.62 159.157 174.699 156.998C172.427 155.318 172.765 152.392 174.861 150.454C175.62 149.752 175.646 148.882 175.771 148.03C177.04 139.375 181.559 132.946 189.205 128.815C190.635 128.042 191.457 126.606 193.079 126.092C194.98 125.49 196.974 125.328 198.847 124.507C200.191 123.918 201.526 125.255 202.987 125.422C204.948 125.647 207.15 125.702 208.304 127.896C208.475 128.221 209.062 128.325 209.454 128.536C217.574 132.911 222.024 139.779 223.209 148.843C223.299 149.534 223.411 150.082 223.992 150.576C225.8 152.116 226.026 153.939 224.817 156.082C223.963 157.595 222.544 158.506 221.146 159.622ZM177.414 155.841C182.637 159.126 188.12 161.522 194.496 161.231C197.613 161.089 200.76 160.981 203.861 161.24C209.719 161.728 214.796 159.622 219.761 156.972C220.693 156.475 221.621 155.919 222.256 155.04C222.853 154.215 223.047 153.329 221.877 152.855C220.865 152.445 220.676 151.734 220.618 150.76C220.167 143.196 217.081 137.03 210.813 132.606C209.845 131.923 208.876 131.167 207.605 131.079C207.161 132.121 207.194 133.124 207.159 134.125C206.936 140.586 206.683 147.045 206.477 153.506C206.443 154.551 206.077 155.014 204.989 155.011C203.805 155.009 203.583 154.357 203.647 153.393C203.666 153.115 203.673 152.836 203.685 152.558C203.988 145.321 204.312 138.085 204.581 130.847C204.67 128.456 204.595 128.428 202.28 128.167C201.862 128.12 201.406 127.886 200.981 128.264C200.675 128.819 200.805 129.444 200.802 130.046C200.787 133.058 200.777 136.07 200.797 139.081C200.804 140.083 200.676 140.832 199.388 140.831C198.124 140.83 197.935 140.118 197.945 139.098C197.974 136.143 197.965 133.186 197.979 130.23C197.989 128.115 197.525 127.811 195.503 128.326C194.294 128.635 194.302 129.432 194.334 130.364C194.594 137.995 194.837 145.626 195.111 153.256C195.151 154.371 194.917 155.116 193.604 155.096C192.288 155.076 192.285 154.164 192.259 153.239C192.128 148.392 192.021 143.544 191.853 138.697C191.765 136.161 191.571 133.628 191.419 131.003C191.044 131.087 190.82 131.097 190.633 131.187C190.081 131.451 189.515 131.704 189.004 132.038C182.511 136.287 178.937 142.273 178.341 150.022C178.273 150.893 178.383 151.764 177.425 152.367C175.46 153.604 175.461 154.139 177.414 155.841ZM185.801 162.938C184.513 162.474 183.224 162.011 181.84 161.514C182.964 166.288 186.13 168.864 190.727 168.875C196.638 168.888 202.55 168.892 208.462 168.892C212.527 168.892 216.438 165.602 217.29 161.36C216.557 161.641 215.901 161.916 215.229 162.144C213.073 162.874 211.008 163.964 208.669 164.008C204.098 164.096 199.527 164.19 194.955 164.174C191.953 164.164 188.929 164.128 185.801 162.938Z" fill="white"/>
<path d="M181.882 141.778C182.977 139.419 184.396 137.432 186.009 135.564C186.62 134.856 187.132 134.81 187.838 135.399C188.572 136.013 188.744 136.537 188.032 137.333C186.501 139.044 185.279 140.977 184.237 143.025C183.808 143.868 183.644 145.108 182.154 144.414C180.68 143.728 181.521 142.787 181.882 141.778Z" fill="white"/>
<path d="M213.11 136.033C214.964 137.936 216.206 140.074 217.161 142.412C217.562 143.395 217.339 143.963 216.405 144.405C215.344 144.906 215.04 144.215 214.704 143.458C213.779 141.373 212.729 139.369 211.153 137.673C210.621 137.1 209.866 136.481 210.818 135.577C211.761 134.682 212.391 135.223 213.11 136.033Z" fill="white"/>
<path d="M270.423 152.507C272.364 143.731 274.288 135.112 276.129 126.476C276.496 124.752 277.219 123.963 279.094 124.082C281.542 124.236 284.009 124.149 286.467 124.1C287.92 124.071 288.547 124.479 288.113 126.082C284.143 140.771 280.206 155.469 276.286 170.171C275.946 171.448 275.32 172.064 273.932 172.009C271.828 171.925 269.706 171.836 267.615 172.02C265.309 172.224 264.306 171.446 263.777 169.096C261.976 161.091 259.913 153.145 257.943 145.178C257.827 144.709 257.645 144.257 257.413 143.552C256.467 144.617 256.396 145.81 256.139 146.875C254.277 154.579 252.428 162.286 250.684 170.017C250.356 171.474 249.746 172.044 248.293 172.007C245.766 171.943 243.234 171.928 240.708 172.002C239.269 172.044 238.554 171.502 238.197 170.088C234.536 155.604 230.824 141.133 227.139 126.655C226.531 124.271 226.646 124.136 229.095 124.115C231.484 124.096 233.879 124.216 236.258 124.071C238.054 123.961 238.507 124.91 238.819 126.38C240.603 134.812 242.44 143.234 244.27 151.657C244.459 152.528 244.72 153.383 245.287 154.271C246.549 148.635 247.819 143.001 249.072 137.363C249.938 133.464 250.812 129.565 251.612 125.652C251.839 124.543 252.389 124.107 253.476 124.116C255.934 124.138 258.395 124.184 260.85 124.087C262.353 124.026 262.966 124.694 263.267 126.074C265.059 134.29 266.898 142.495 268.727 150.703C268.986 151.863 269.272 153.018 269.665 154.677C270.004 153.713 270.191 153.185 270.423 152.507Z" fill="white"/>
<path d="M174.068 106.152C164.081 94.9379 154.122 83.9034 143.457 72.7676C142.957 77.3467 139.815 79.5718 137.208 82.1572C128.232 91.0587 119.231 99.9339 110.217 108.797C105.941 113.001 99.5212 113.102 95.4421 109.087C91.3706 105.08 91.4461 98.4192 95.6917 94.1488C104.753 85.034 113.879 75.9834 122.917 66.8459C125.551 64.1837 128.228 61.7866 132.221 62.1057C132.53 61.1766 131.947 60.8554 131.589 60.4903C126.421 55.23 121.246 49.9835 115.622 45.1907C112.739 42.7342 109.272 41.6772 105.866 40.3886C104.916 40.0289 104.406 40.6259 103.867 41.1554C102.487 42.5104 101.022 42.577 99.2455 41.8766C89.1051 37.8789 83.6702 26.3022 87.0154 15.8646C87.6035 14.0293 88.4394 14.1881 89.5389 15.1771C92.2003 17.5705 94.8717 19.9595 97.4104 22.4797C98.6089 23.6696 99.4432 23.5526 100.53 22.4401C103.175 19.7345 105.878 17.0864 108.672 14.3015C105.476 10.2819 101.422 7.18661 98.3459 2.9064C102.346 0.434366 106.409 -0.237832 110.682 0.284678C117.18 1.07921 122.363 4.07157 125.859 9.73259C126.043 10.0303 126.263 10.3067 126.48 10.5831C129.683 14.6794 129.695 15.1667 126.453 19.1625C125.969 19.7585 125.784 20.3716 125.817 21.0966C126.041 25.8662 126.703 30.3223 130.705 33.7984C134.565 37.1511 137.975 41.0213 141.599 44.6473C142.682 45.7308 143.822 46.7569 145.142 48.0034C145.609 45.829 146.005 43.8316 148.477 43.5382C150.658 43.2793 152.165 44.5811 154.144 46.3564C156.541 43.7544 158.793 41.1627 161.201 38.7248C167.765 32.0797 174.382 25.4868 181.013 18.9082C181.961 17.967 182.631 17.0428 182.503 15.6223C182.375 14.2041 183.014 13.0596 184.034 12.0775C186.514 9.69187 188.964 7.27632 191.417 4.86385C191.88 4.40839 192.389 4.08026 193.036 3.94595C196.126 3.30395 199.212 2.64147 202.378 2.48172C204.273 2.38611 204.512 2.91015 204.375 4.85884C203.885 11.8134 200.29 16.8211 194.953 20.9512C193.271 22.2528 191.722 23.3952 189.51 23.1717C188.498 23.0695 187.799 23.5947 187.124 24.268C180.113 31.2601 173.071 38.2206 166.079 45.232C163.809 47.5081 161.217 49.4688 159.196 52.0518C160.029 53.9522 162.255 54.9745 162.171 57.2885C162.098 59.2437 161.211 59.8546 157.317 60.3786C160.787 63.6019 164.1 66.6621 167.395 69.7425C175.501 77.3197 183.819 84.6614 192.105 92.0388C196.793 96.2123 197.136 103.363 193.133 107.999C189.21 112.543 182.225 113.16 177.352 109.324C176.2 108.418 175.224 107.29 174.068 106.152ZM114.118 100.207C122.013 92.4098 129.913 84.6171 137.799 76.8117C138.9 75.7224 139.876 74.6082 139.902 72.8549C139.951 69.5599 137.824 67.8888 135.314 66.6444C132.67 65.3333 129.859 64.9581 127.461 67.2101C125.313 69.2265 123.36 71.4486 121.28 73.5383C113.552 81.3019 105.776 89.0187 98.0816 96.816C95.1285 99.8087 95.1226 103.882 97.8611 106.592C100.532 109.235 104.745 109.202 107.719 106.434C109.825 104.473 111.845 102.417 114.118 100.207ZM183.735 89.1228C175.441 82.0658 167.517 74.5989 159.491 67.2451C148.4 57.0828 138.164 46.0621 127.448 35.5247C124.924 33.0426 123.18 30.1862 122.839 26.5421C122.755 25.6482 122.91 24.5647 122.112 23.731C117.636 28.3596 113.196 32.9516 108.689 37.6136C114.943 39.052 119.43 43.703 124.025 48.108C140.057 63.478 155.137 79.7602 169.909 96.3329C172.711 99.4774 175.522 102.617 178.411 105.681C179.825 107.181 181.532 108.323 183.695 108.472C187.086 108.705 189.742 107.447 191.451 104.456C193.128 101.521 192.834 98.0786 190.666 95.3915C188.753 93.0215 186.199 91.3403 183.735 89.1228ZM109.935 10.3069C110.804 11.2246 111.666 12.1481 112.543 13.0584C113.32 13.8665 113.319 14.5914 112.484 15.4006C108.3 19.4526 104.131 23.5205 99.9841 27.6096C99.0419 28.5387 98.3046 28.2927 97.4812 27.4717C95.5922 25.5883 93.6905 23.7161 91.7454 21.8912C91.1822 21.3629 90.6851 20.6009 89.732 20.6153C88.8774 27.5704 92.3044 33.9123 98.7135 37.7143C100.512 38.7815 101.744 38.717 103.27 37.1786C109.599 30.8005 116.023 24.5167 122.457 18.2448C125.556 15.2246 125.503 15.3338 123.213 11.7404C120.383 7.30081 116.373 4.74438 111.27 3.94437C109.207 3.62097 106.987 3.1978 104.849 4.73144C106.286 6.84303 108.189 8.31051 109.935 10.3069ZM194.632 16.3155C195.647 15.3474 196.645 14.3596 197.682 13.4152C199.731 11.5501 199.811 9.06344 200.153 6.59528C196.779 6.28319 194.166 7.16878 192.138 9.18847C190.496 10.8231 188.879 12.4841 187.188 14.0658C186.251 14.942 185.906 15.8013 186.502 17.0303C187.13 18.3246 187.654 19.4457 189.444 19.5775C191.962 19.763 192.92 17.7793 194.632 16.3155ZM172.882 32.0813C167.473 37.5303 162.065 42.9792 156.656 48.4284C156.744 48.5148 156.832 48.6012 156.92 48.6876C166.035 39.3639 175.15 30.0402 184.265 20.7165C184.275 20.7239 184.286 20.7314 184.297 20.7388C180.566 24.4533 176.835 28.1678 172.882 32.0813ZM156.92 56.5001C158.177 56.5495 157.521 55.8826 157.225 55.5356C155.182 53.1403 153.122 50.7592 151.023 48.4132C150.579 47.9166 150.045 47.3955 149.247 47.4933C148.471 51.0033 151.558 54.7013 156.92 56.5001Z" fill="white"/>
<path d="M113.81 93.8731C112.713 94.9161 111.665 95.0341 110.81 93.9157C110.06 92.9334 110.64 92.1164 111.409 91.3525C117.934 84.8692 124.44 78.3661 130.952 71.8706C131.25 71.573 131.541 71.2627 131.869 71.0026C132.569 70.4491 133.306 70.4512 133.983 71.0237C134.752 71.675 134.809 72.492 134.236 73.2736C133.784 73.8912 133.219 74.4308 132.675 74.9763C126.426 81.2416 120.172 87.5011 113.81 93.8731Z" fill="white"/>
<path d="M170.359 94.3182C164.407 88.7269 159.093 82.7322 153.62 76.8905C142.189 64.6895 130.559 52.6832 118.598 40.9988C117.522 39.9485 115.735 38.9835 116.146 37.3297C116.613 35.4563 118.736 35.1822 120.365 34.5876C122.208 33.9152 123.48 35.0115 124.655 36.1354C128.867 40.1651 133.049 44.227 137.225 48.2943C149.856 60.5948 162.478 72.9033 175.103 85.2102C175.706 85.7983 176.309 86.3885 176.892 86.9968C179.34 89.5485 179.554 91.2045 177.738 93.4249C175.494 96.1689 173.507 96.4387 170.359 94.3182ZM137.725 58.4001C147.907 69.1564 158.087 79.9132 168.271 90.6674C169.478 91.9422 170.691 93.2162 172.241 94.0931C174.265 95.2368 175.55 93.9687 176.784 92.6559C177.968 91.3975 178.102 90.0173 176.903 88.7126C175.814 87.5263 174.615 86.4399 173.459 85.3143C157.263 69.5455 141.067 53.7763 124.864 38.0151C124.212 37.3817 123.534 36.7492 122.776 36.2584C121.546 35.4617 118.744 35.925 117.964 37.1669C117.029 38.6566 118.631 39.2696 119.36 40.0088C125.372 46.1076 131.452 52.1402 137.725 58.4001Z" fill="white"/>
<path d="M187.967 97.282C189.992 99.265 190.486 101.488 189.38 103.903C188.396 106.056 186.613 107.188 184.192 107.173C181.781 107.158 180.042 106.068 179.065 103.851C178.089 101.634 178.755 99.0201 180.674 97.3865C182.768 95.6046 185.072 95.5392 187.967 97.282Z" fill="white"/>
</g>
<defs>
<clipPath id="clip0_455_3151">
<rect width="289.196" height="172" fill="white" transform="translate(0.34375 0.119141)"/>
</clipPath>
</defs>
</svg>
