<svg width="111" height="67" viewBox="0 0 111 67" fill="none" xmlns="http://www.w3.org/2000/svg">
<g clip-path="url(#clip0_455_3548)">
<path d="M3.36083 65.6654C2.7551 65.6658 2.17867 65.6675 1.60224 65.6662C1.15028 65.6653 1.05677 65.551 1.05674 64.9954C1.05647 59.5158 1.05683 54.036 1.05706 48.5563C1.05707 48.3428 1.05547 48.1291 1.05845 47.9158C1.06283 47.6015 1.20118 47.4377 1.45482 47.4113C1.50333 47.4061 1.55245 47.409 1.60129 47.409C4.84489 47.409 8.0885 47.4085 11.3321 47.4095C11.8657 47.4097 11.9404 47.5039 11.941 48.1497C11.9419 49.2766 11.944 50.4034 11.9436 51.5301C11.9435 52.0293 11.8577 52.1364 11.4463 52.1369C9.54117 52.1393 7.63603 52.1385 5.73089 52.1391C5.31318 52.1393 5.31272 52.1396 5.31236 52.6578C5.31211 53.0493 5.3259 53.4415 5.30983 53.8319C5.29676 54.1494 5.40425 54.2373 5.65389 54.236C7.47105 54.2267 9.28829 54.2308 11.1055 54.2312C11.6268 54.2313 11.7515 54.3707 11.7462 54.9969C11.7371 56.0637 11.7706 57.1311 11.7135 58.1977C11.6903 58.6301 11.6148 58.7428 11.2557 58.7451C10.5816 58.7492 9.90749 58.7423 9.23339 58.7414C8.06101 58.7399 6.88863 58.7388 5.71624 58.7388C5.34485 58.7388 5.31604 58.7739 5.31431 59.2241C5.31265 59.6511 5.32911 60.079 5.30912 60.5048C5.29387 60.8295 5.3815 60.9343 5.65434 60.9324C7.55943 60.9196 9.46458 60.925 11.3697 60.9246C11.893 60.9244 11.9415 60.9809 11.942 61.6121C11.9429 62.7745 11.9428 63.9369 11.9417 65.0993C11.9413 65.5657 11.8623 65.6659 11.4795 65.6661C8.78305 65.6672 6.08661 65.6659 3.36083 65.6654Z" fill="white"/>
<path d="M25.1313 59.5996C25.2244 61.7126 24.7594 63.4834 23.4364 64.7698C22.74 65.4469 21.9593 65.8823 21.1091 66.1028C19.8175 66.4379 18.5331 66.4103 17.2684 65.9062C15.382 65.1542 14.2811 63.4862 13.9222 60.9708C13.9038 60.8414 13.8818 60.7124 13.8706 60.5818C13.8295 60.1032 13.9592 59.9058 14.3224 59.9044C15.3523 59.9009 16.3823 59.9121 17.412 59.8944C17.6874 59.8898 17.8306 60.0164 17.8522 60.3686C17.9197 61.4698 18.6287 62.0063 19.3482 62.0652C19.7968 62.1019 20.231 62.0311 20.6205 61.7119C20.9947 61.4054 21.1916 60.9682 21.1391 60.3831C21.0918 59.8569 20.8091 59.5705 20.4665 59.3789C19.9315 59.0795 19.359 58.9504 18.7925 58.7999C18.0273 58.5964 17.2673 58.378 16.5332 58.0151C14.3994 56.9603 13.7823 54.5128 14.1169 52.151C14.4027 50.1343 15.3722 48.8156 16.8009 48.1007C18.6731 47.1637 20.5655 47.117 22.3806 48.3351C23.7118 49.2283 24.4436 50.7322 24.6568 52.6616C24.6686 52.768 24.6871 52.8736 24.6944 52.9806C24.7172 53.3149 24.5763 53.5482 24.318 53.5504C23.2421 53.5594 22.1662 53.5567 21.0905 53.5529C20.859 53.552 20.7773 53.355 20.7589 53.0832C20.7037 52.2663 20.3067 51.7427 19.6812 51.6828C19.3708 51.6531 19.0567 51.6218 18.7515 51.753C18.2978 51.9479 18.049 52.3092 18.03 52.8021C18.0069 53.4075 18.1635 53.7312 18.6552 54.0081C19.2318 54.333 19.8496 54.4787 20.4575 54.6647C21.191 54.8889 21.9199 55.1282 22.6236 55.4876C24.0619 56.2224 24.961 57.5112 25.1313 59.5996Z" fill="white"/>
<path d="M32.6717 60.7176C32.6751 62.1568 32.6807 63.5531 32.681 64.9492C32.6812 65.5834 32.5731 65.7048 32.0068 65.7061C30.5872 65.7094 29.1675 65.709 27.7479 65.7064C27.2132 65.7054 27.1098 65.5903 27.1098 65.0089C27.1098 63.1002 27.0729 61.1922 27.0946 59.2825C27.128 56.3195 27.0774 53.3552 27.063 50.3915C27.0586 49.4983 27.0676 49.4754 27.8378 49.1562C29.1661 48.6059 30.496 48.0606 31.8279 47.5209C32.4543 47.2671 32.6704 47.4273 32.671 48.1507C32.6739 52.3254 32.672 56.5002 32.6717 60.7176Z" fill="white"/>
<path d="M46.7278 53.4221C46.7293 55.2856 46.7293 55.2847 48.5009 55.2827C49.4631 55.2816 50.4259 55.3049 51.3873 55.2784C51.9428 55.2632 52.1632 55.4972 52.1558 56.0332C52.1455 56.7814 52.1449 57.5303 52.1672 58.2782C52.185 58.8802 51.886 59.0715 51.3273 59.06C50.0713 59.0341 48.8144 59.0544 47.5589 59.0186C46.9474 59.0012 46.7022 59.2067 46.7134 59.8485C46.7452 61.6922 46.7007 63.5373 46.7344 65.3809C46.7471 66.0669 46.5394 66.3533 45.8209 66.3131C44.9148 66.2626 44.0035 66.2826 43.0952 66.3054C42.5284 66.3199 42.2806 66.1264 42.282 65.5206C42.2953 59.9609 42.2932 54.4011 42.2774 48.8415C42.2756 48.2405 42.5135 48.058 43.0869 48.061C46.1607 48.0771 49.2347 48.0768 52.3085 48.0577C52.9145 48.0538 53.1951 48.2397 53.1617 48.8846C53.123 49.631 53.1252 50.3823 53.1622 51.1289C53.1939 51.7702 52.8907 51.9866 52.3038 51.9839C50.8873 51.977 49.4706 51.9863 48.054 51.985C46.7267 51.9839 46.7267 51.9816 46.7278 53.4221Z" fill="white"/>
<path d="M59.5065 49.5758C59.5047 53.5847 59.5184 57.5146 59.4882 61.4442C59.4826 62.1738 59.702 62.4362 60.4461 62.4109C61.8879 62.3616 63.333 62.4096 64.7761 62.386C65.3924 62.3759 65.6502 62.6077 65.6188 63.2365C65.5826 63.9564 65.5831 64.6811 65.618 65.401C65.6493 66.0444 65.4277 66.3107 64.7489 66.3043C61.8085 66.2766 58.8676 66.278 55.927 66.2953C55.3 66.2992 55.0788 66.0608 55.0841 65.4434C55.1041 63.1445 55.09 60.8454 55.0894 58.5463C55.0884 55.4184 55.0871 52.2907 55.0875 49.1628C55.0876 48.0802 55.0895 48.0787 56.136 48.0733C56.7777 48.0699 57.4193 48.072 58.0609 48.0715C59.5169 48.0704 59.5169 48.0704 59.5065 49.5758Z" fill="white"/>
<path d="M84.383 61.5909C83.9142 62.9414 83.4016 64.2073 82.2993 65.1465C81.5326 65.7997 80.7328 66.2309 79.6673 66.2058C77.3548 66.1514 75.0377 66.1204 72.7274 66.2076C71.1633 66.2668 70.1019 65.5703 69.2321 64.4016C69.068 64.181 68.8827 63.9571 68.7923 63.7043C68.3572 62.4866 67.8088 61.4139 66.6966 60.5918C65.8312 59.9521 65.9602 58.8378 66.7582 58.0999C67.0473 57.8326 67.057 57.5015 67.1046 57.1771C67.5878 53.8812 69.3087 51.4332 72.22 49.8599C72.7646 49.5656 73.0778 49.019 73.6955 48.8231C74.4192 48.5938 75.1786 48.5322 75.8916 48.2198C76.4034 47.9955 76.9118 48.5046 77.4681 48.5682C78.2149 48.6536 79.0535 48.6749 79.4928 49.5101C79.5579 49.6341 79.7815 49.6736 79.9308 49.754C83.0226 51.4198 84.7171 54.035 85.1684 57.4864C85.2028 57.7495 85.2455 57.9583 85.4667 58.1466C86.1551 58.7329 86.2411 59.4269 85.7807 60.2432C85.4557 60.8191 84.9154 61.1661 84.383 61.5909ZM67.7301 60.1512C69.7192 61.4022 71.8072 62.3145 74.2351 62.2038C75.4219 62.1498 76.6201 62.1086 77.8011 62.207C80.0315 62.3929 81.9649 61.5911 83.8554 60.5821C84.2104 60.3927 84.5637 60.1809 84.8056 59.8464C85.0329 59.5322 85.1069 59.1947 84.6613 59.0142C84.2759 58.8582 84.204 58.5873 84.1819 58.2166C84.0103 55.3362 82.8352 52.9882 80.4481 51.3038C80.0796 51.0437 79.7107 50.7556 79.2267 50.7222C79.0574 51.119 79.0701 51.5009 79.0569 51.8821C78.9718 54.3422 78.8755 56.8019 78.797 59.2623C78.7843 59.6602 78.6447 59.8362 78.2305 59.8353C77.7796 59.8344 77.6952 59.5862 77.7197 59.2192C77.7267 59.1133 77.7296 59.0071 77.7341 58.901C77.8493 56.1454 77.9728 53.3902 78.0753 50.634C78.1092 49.7233 78.0804 49.7127 77.199 49.6133C77.0399 49.5953 76.8662 49.5064 76.7045 49.6502C76.588 49.8616 76.6372 50.0997 76.6361 50.3288C76.6303 51.4756 76.6266 52.6226 76.6343 53.7693C76.6368 54.1507 76.5884 54.4359 76.0978 54.4355C75.6163 54.4351 75.5446 54.1641 75.5483 53.7759C75.5594 52.6504 75.556 51.5247 75.5611 50.3991C75.5648 49.5934 75.3883 49.4776 74.6184 49.6741C74.1581 49.7916 74.1612 50.095 74.1733 50.4499C74.2723 53.3556 74.3646 56.2614 74.469 59.1668C74.4843 59.5915 74.3953 59.8751 73.8952 59.8676C73.394 59.8601 73.3928 59.5127 73.3833 59.1605C73.3332 57.3147 73.2924 55.4686 73.2285 53.6232C73.1951 52.6573 73.121 51.6929 73.0633 50.6932C72.9205 50.7252 72.835 50.7291 72.7638 50.7633C72.5536 50.864 72.3382 50.9601 72.1438 51.0872C69.6711 52.7052 68.3103 54.9849 68.0831 57.9356C68.0575 58.2673 68.0993 58.5989 67.7346 58.8284C66.9861 59.2994 66.9865 59.5034 67.7301 60.1512ZM70.9242 62.8536C70.4334 62.6771 69.9426 62.5007 69.4158 62.3114C69.8435 64.1295 71.0491 65.1104 72.7997 65.1143C75.0507 65.1194 77.3019 65.1211 79.553 65.1211C81.1008 65.1211 82.5903 63.8682 82.9146 62.253C82.6353 62.3598 82.3856 62.4648 82.1297 62.5514C81.3089 62.8294 80.5226 63.2443 79.6319 63.2614C77.8914 63.2947 76.1505 63.3304 74.4097 63.3244C73.2665 63.3205 72.1152 63.307 70.9242 62.8536Z" fill="white"/>
<path d="M69.4308 54.7958C69.8478 53.8976 70.3884 53.1411 71.0025 52.4296C71.2353 52.1602 71.4302 52.1427 71.6988 52.3669C71.9784 52.6005 72.0438 52.8002 71.7726 53.1034C71.1897 53.7549 70.7246 54.491 70.3279 55.2706C70.1645 55.5917 70.102 56.0639 69.5346 55.7997C68.9733 55.5384 69.2935 55.1799 69.4308 54.7958Z" fill="white"/>
<path d="M81.3234 52.6086C82.0291 53.3334 82.5023 54.1474 82.8657 55.0377C83.0184 55.412 82.9337 55.6283 82.5781 55.7965C82.1738 55.9874 82.0583 55.7241 81.9303 55.436C81.578 54.6421 81.1782 53.8789 80.5781 53.2332C80.3756 53.0151 80.0881 52.7791 80.4507 52.4351C80.8097 52.0942 81.0496 52.3003 81.3234 52.6086Z" fill="white"/>
<path d="M103.147 58.882C103.886 55.5405 104.618 52.2585 105.319 48.9699C105.459 48.3131 105.734 48.013 106.448 48.0581C107.381 48.1168 108.32 48.0838 109.256 48.065C109.809 48.0539 110.048 48.2093 109.883 48.8196C108.371 54.4131 106.872 60.0099 105.379 65.6083C105.25 66.0946 105.011 66.3293 104.483 66.3082C103.682 66.2761 102.873 66.2423 102.077 66.3126C101.199 66.3903 100.817 66.0939 100.616 65.199C99.9301 62.1507 99.1445 59.1249 98.3942 56.0914C98.35 55.9129 98.2808 55.7406 98.1925 55.4721C97.8325 55.8776 97.8053 56.332 97.7074 56.7374C96.9985 59.671 96.2941 62.6058 95.6303 65.5497C95.5053 66.1047 95.2728 66.3216 94.7196 66.3074C93.7573 66.283 92.7933 66.2773 91.8313 66.3055C91.2834 66.3216 91.0113 66.1151 90.8752 65.5767C89.4811 60.0614 88.0678 54.5511 86.6643 49.0381C86.4332 48.1303 86.4768 48.0786 87.4095 48.0709C88.3189 48.0635 89.2309 48.1093 90.137 48.0541C90.8209 48.0123 90.9935 48.3733 91.1119 48.9331C91.7916 52.1442 92.4909 55.351 93.1877 58.5584C93.2598 58.8901 93.3592 59.2156 93.5749 59.5538C94.0557 57.4077 94.5394 55.2624 95.0163 53.1155C95.3462 51.6306 95.6788 50.1461 95.9837 48.656C96.07 48.2337 96.2793 48.0675 96.6932 48.0712C97.6292 48.0794 98.5666 48.0972 99.5013 48.06C100.074 48.037 100.307 48.2913 100.421 48.8166C101.104 51.9453 101.804 55.0698 102.501 58.1953C102.599 58.6371 102.708 59.0766 102.858 59.7084C102.987 59.3415 103.058 59.1405 103.147 58.882Z" fill="white"/>
<path d="M66.6667 41.2305C62.864 36.9604 59.0716 32.7586 55.0104 28.5182C54.8199 30.2619 53.6235 31.1091 52.6308 32.0937C49.2129 35.4832 45.7853 38.8628 42.3529 42.2376C40.7247 43.8387 38.2801 43.8769 36.7269 42.3484C35.1765 40.8226 35.2052 38.286 36.8219 36.6599C40.2725 33.1891 43.7474 29.7427 47.1892 26.2633C48.1918 25.2495 49.2112 24.3368 50.7317 24.4583C50.8495 24.1045 50.6275 23.9822 50.4911 23.8431C48.5233 21.8401 46.5527 19.8423 44.411 18.0172C43.3134 17.0818 41.993 16.6793 40.6961 16.1886C40.3343 16.0517 40.1404 16.279 39.935 16.4806C39.4096 16.9966 38.8515 17.022 38.1752 16.7553C34.3138 15.233 32.2443 10.8247 33.5181 6.8502C33.742 6.15132 34.0603 6.21179 34.479 6.58838C35.4924 7.49978 36.5097 8.40946 37.4764 9.36915C37.9328 9.82224 38.2504 9.77768 38.6644 9.35406C39.6714 8.32379 40.7009 7.31544 41.7647 6.25498C40.5478 4.72435 39.0041 3.5457 37.8326 1.91585C39.3558 0.974526 40.9029 0.718561 42.5301 0.917527C45.0045 1.22007 46.9779 2.35953 48.3093 4.51518C48.3793 4.62857 48.4633 4.73381 48.5456 4.83907C49.7655 6.39886 49.77 6.58441 48.5353 8.106C48.3512 8.33294 48.2806 8.56639 48.2934 8.84247C48.3787 10.6587 48.6305 12.3555 50.1546 13.6792C51.6244 14.9558 52.9228 16.4296 54.303 17.8103C54.7154 18.2229 55.1494 18.6136 55.6519 19.0883C55.8299 18.2603 55.9808 17.4997 56.922 17.388C57.7524 17.2894 58.3265 17.7851 59.0798 18.4611C59.9926 17.4703 60.8503 16.4834 61.7672 15.5551C64.2667 13.0247 66.7863 10.5142 69.3113 8.00917C69.6725 7.65077 69.9274 7.29883 69.8786 6.75793C69.8298 6.21788 70.0731 5.78206 70.4618 5.40809C71.4058 4.49968 72.3388 3.57986 73.273 2.66122C73.4494 2.48779 73.6431 2.36284 73.8894 2.3117C75.0661 2.06723 76.2413 1.81496 77.4469 1.75413C78.1683 1.71773 78.2595 1.91728 78.2071 2.65931C78.0207 5.30754 76.6516 7.21439 74.6195 8.78712C73.9791 9.28272 73.3893 9.71775 72.5467 9.63262C72.1615 9.59371 71.8955 9.79373 71.6385 10.0501C68.9687 12.7126 66.2869 15.3631 63.6247 18.033C62.7603 18.8997 61.773 19.6463 61.0038 20.6298C61.3206 21.3535 62.1686 21.7428 62.1363 22.6239C62.1088 23.3685 61.7711 23.6011 60.288 23.8006C61.6094 25.028 62.8712 26.1933 64.1257 27.3663C67.2124 30.2516 70.3797 33.0472 73.5351 35.8565C75.3202 37.4457 75.4507 40.1684 73.9266 41.9337C72.4327 43.6644 69.7729 43.8993 67.9171 42.4386C67.4787 42.0936 67.1067 41.6639 66.6667 41.2305ZM43.8384 38.9667C46.8448 35.9977 49.8528 33.0303 52.8558 30.0582C53.275 29.6434 53.6469 29.2191 53.6567 28.5514C53.6753 27.2967 52.8654 26.6604 51.9097 26.1865C50.9027 25.6873 49.8324 25.5444 48.9192 26.402C48.1014 27.1698 47.3579 28.0159 46.5657 28.8117C43.6229 31.7679 40.6619 34.7064 37.7319 37.6756C36.6074 38.8151 36.6052 40.366 37.648 41.3981C38.6649 42.4044 40.2694 42.3919 41.4016 41.338C42.2038 40.5912 42.9727 39.8085 43.8384 38.9667ZM70.3476 34.7461C67.1894 32.0588 64.1723 29.2155 61.116 26.4153C56.8928 22.5456 52.9948 18.349 48.9142 14.3365C47.9531 13.3914 47.289 12.3037 47.1591 10.916C47.1272 10.5756 47.1863 10.1631 46.8824 9.84561C45.1782 11.6081 43.4875 13.3567 41.7712 15.1319C44.1528 15.6797 45.8611 17.4507 47.6109 19.1281C53.7158 24.9808 59.458 31.1809 65.0829 37.4916C66.1501 38.689 67.2204 39.8846 68.3206 41.0513C68.8591 41.6223 69.5089 42.0573 70.3327 42.1139C71.6238 42.2026 72.6353 41.7238 73.2861 40.5847C73.9247 39.4672 73.8126 38.1563 72.9869 37.1331C72.2586 36.2306 71.2859 35.5905 70.3476 34.7461ZM42.2457 4.73386C42.5764 5.08333 42.9048 5.43498 43.2385 5.78161C43.5347 6.08934 43.5342 6.36536 43.2161 6.67351C41.623 8.21644 40.0357 9.76548 38.4564 11.3226C38.0976 11.6763 37.8169 11.5826 37.5033 11.27C36.784 10.5529 36.0599 9.83993 35.3192 9.14505C35.1047 8.94386 34.9155 8.65371 34.5525 8.65921C34.2271 11.3076 35.5321 13.7225 37.9726 15.1703C38.6575 15.5767 39.1265 15.5521 39.7077 14.9663C42.1176 12.5376 44.5639 10.1448 47.014 7.75653C48.1939 6.60649 48.1738 6.64806 47.3017 5.27975C46.2241 3.58919 44.697 2.61573 42.7539 2.31109C41.9684 2.18795 41.1231 2.02681 40.3087 2.6108C40.856 3.41487 41.5806 3.97367 42.2457 4.73386ZM74.4971 7.02189C74.8839 6.65323 75.2638 6.27708 75.6587 5.9175C76.4387 5.20729 76.4694 4.26038 76.5996 3.32053C75.3147 3.20169 74.3198 3.53891 73.5475 4.30799C72.9224 4.93044 72.3066 5.56294 71.6625 6.16521C71.3057 6.49888 71.1744 6.82609 71.4015 7.29406C71.6405 7.78693 71.8402 8.21383 72.5217 8.26402C73.4804 8.33466 73.8452 7.57927 74.4971 7.02189ZM66.215 13.0253C64.1556 15.1002 62.096 17.1751 60.0364 19.2501C60.07 19.283 60.1035 19.3159 60.1369 19.3488C63.6077 15.7985 67.0786 12.2481 70.5494 8.69774C70.5534 8.70056 70.5576 8.70339 70.5618 8.70621C69.1411 10.1207 67.7203 11.5351 66.215 13.0253ZM60.1371 22.3237C60.6156 22.3425 60.3657 22.0886 60.253 21.9564C59.4752 21.0443 58.6907 20.1377 57.8916 19.2443C57.7224 19.0552 57.519 18.8568 57.2151 18.894C56.9198 20.2306 58.0951 21.6388 60.1371 22.3237Z" fill="white"/>
<path d="M43.7207 36.5551C43.303 36.9522 42.9037 36.9972 42.5783 36.5713C42.2926 36.1973 42.5133 35.8862 42.8061 35.5953C45.2908 33.1265 47.7682 30.6502 50.2482 28.1768C50.3617 28.0634 50.4723 27.9453 50.5974 27.8462C50.8637 27.6355 51.1445 27.6363 51.4021 27.8543C51.6951 28.1023 51.7168 28.4134 51.4988 28.711C51.3265 28.9462 51.1112 29.1517 50.9042 29.3594C48.5248 31.7452 46.1432 34.1287 43.7207 36.5551Z" fill="white"/>
<path d="M65.2544 36.7244C62.988 34.5953 60.9646 32.3126 58.8806 30.0882C54.5275 25.4422 50.099 20.8703 45.5444 16.421C45.1348 16.0211 44.4542 15.6536 44.6109 15.0239C44.7886 14.3105 45.597 14.2061 46.2175 13.9797C46.9191 13.7237 47.4033 14.1411 47.8508 14.5691C49.4548 16.1036 51.0473 17.6503 52.6375 19.1991C57.4471 23.883 62.2536 28.5699 67.061 33.2562C67.2907 33.4802 67.5201 33.7049 67.7422 33.9365C68.6743 34.9082 68.756 35.5388 68.0644 36.3843C67.2099 37.4292 66.4534 37.5319 65.2544 36.7244ZM52.8279 23.0472C56.7049 27.1431 60.5815 31.2392 64.4594 35.3343C64.919 35.8197 65.3807 36.3048 65.9711 36.6387C66.7417 37.0742 67.231 36.5914 67.701 36.0915C68.1517 35.6123 68.2028 35.0867 67.7464 34.5899C67.3316 34.1382 66.8751 33.7245 66.4351 33.2959C60.2677 27.2913 54.1005 21.2866 47.9303 15.2849C47.6823 15.0437 47.424 14.8028 47.1355 14.6159C46.6671 14.3126 45.6001 14.489 45.3031 14.9619C44.9469 15.5291 45.557 15.7626 45.8346 16.044C48.124 18.3664 50.439 20.6636 52.8279 23.0472Z" fill="white"/>
<path d="M71.9599 37.8528C72.7309 38.608 72.919 39.4546 72.4981 40.3741C72.1231 41.1938 71.4444 41.6249 70.5226 41.6193C69.6044 41.6137 68.9422 41.1986 68.5703 40.3544C68.1984 39.5101 68.4523 38.5147 69.183 37.8927C69.9802 37.2141 70.8577 37.1892 71.9599 37.8528Z" fill="white"/>
</g>
<defs>
<clipPath id="clip0_455_3548">
<rect width="110.123" height="65.4956" fill="white" transform="translate(0.515625 0.854492)"/>
</clipPath>
</defs>
</svg>
