<svg width="188" height="178" viewBox="0 0 188 178" fill="none" xmlns="http://www.w3.org/2000/svg">
<path d="M139.736 168.296C123.885 150.497 108.078 132.983 91.1499 115.308C90.3557 122.576 85.3688 126.108 81.2309 130.212C66.9847 144.34 52.6978 158.427 38.3907 172.494C31.6038 179.168 21.4145 179.327 14.9401 172.956C8.47777 166.596 8.59754 156.023 15.3362 149.245C29.7189 134.778 44.2033 120.412 58.5492 105.909C62.7285 101.684 66.9774 97.8792 73.3153 98.3857C73.8064 96.911 72.881 96.4011 72.3123 95.8217C64.1102 87.4724 55.8961 79.1452 46.9694 71.538C42.394 67.6391 36.8905 65.9613 31.4847 63.916C29.9765 63.3452 29.1682 64.2928 28.3124 65.1331C26.1224 67.2838 23.7959 67.3895 20.9769 66.2778C4.88194 59.9326 -3.74433 41.558 1.56512 24.9914C2.49854 22.0783 3.8254 22.3304 5.57046 23.9001C9.79459 27.699 14.0348 31.4908 18.0642 35.4909C19.9665 37.3795 21.2907 37.1938 23.0164 35.428C27.2137 31.1336 31.5048 26.9306 35.939 22.5104C30.8664 16.1304 24.4322 11.2176 19.549 4.42396C25.8983 0.500328 32.3465 -0.56659 39.1294 0.262742C49.4432 1.52383 57.6686 6.27333 63.2183 15.2586C63.51 15.7312 63.86 16.1698 64.2032 16.6086C69.2878 23.1101 69.3066 23.8836 64.1604 30.2258C63.3929 31.1718 63.0985 32.1449 63.152 33.2956C63.5073 40.866 64.5572 47.9387 70.9098 53.4561C77.0362 58.7775 82.448 64.9203 88.2011 70.6756C89.9201 72.3952 91.7294 74.0238 93.8237 76.0024C94.5658 72.5511 95.1947 69.3808 99.1178 68.9151C102.579 68.5043 104.972 70.5705 108.112 73.3882C111.917 69.2584 115.492 65.1447 119.314 61.2753C129.732 50.7281 140.234 40.2638 150.759 29.8222C152.264 28.3284 153.327 26.8614 153.124 24.6068C152.92 22.3558 153.935 20.5392 155.555 18.9804C159.49 15.1939 163.379 11.3599 167.272 7.53085C168.007 6.80794 168.815 6.28713 169.842 6.07395C174.746 5.05496 179.645 4.00346 184.67 3.7499C187.677 3.59816 188.057 4.42992 187.839 7.52289C187.062 18.5613 181.355 26.5094 172.885 33.0649C170.216 35.1307 167.757 36.944 164.245 36.5892C162.639 36.427 161.53 37.2607 160.459 38.3293C149.331 49.4272 138.153 60.475 127.056 71.6036C123.453 75.2162 119.338 78.3282 116.131 82.4279C117.452 85.4443 120.987 87.0669 120.852 90.7397C120.738 93.8431 119.33 94.8126 113.148 95.6443C118.656 100.76 123.915 105.618 129.144 110.507C142.01 122.534 155.213 134.186 168.365 145.896C175.805 152.52 176.349 163.869 169.997 171.227C163.77 178.441 152.683 179.42 144.948 173.332C143.12 171.894 141.57 170.102 139.736 168.296ZM44.5827 158.86C57.1139 146.485 69.6518 134.116 82.169 121.727C83.9161 119.998 85.4664 118.23 85.5073 115.447C85.5849 110.217 82.2092 107.565 78.2253 105.589C74.0279 103.508 69.5669 102.913 65.7603 106.487C62.3518 109.688 59.2524 113.215 55.9503 116.532C43.6841 128.854 31.3422 141.102 19.1295 153.478C14.4423 158.228 14.4329 164.693 18.7795 168.994C23.0184 173.189 29.7062 173.137 34.4255 168.744C37.7691 165.631 40.9741 162.369 44.5827 158.86ZM155.079 141.267C141.915 130.066 129.338 118.215 116.599 106.543C98.996 90.4132 82.7485 72.9211 65.7395 56.196C61.7335 52.2565 58.9654 47.7227 58.4241 41.9387C58.2909 40.5199 58.5371 38.8003 57.2705 37.4769C50.1671 44.8235 43.12 52.112 35.9658 59.5115C45.8928 61.7946 53.0136 69.1767 60.307 76.1683C85.7535 100.564 109.689 126.407 133.134 152.711C137.583 157.702 142.044 162.686 146.63 167.549C148.874 169.929 151.583 171.742 155.017 171.978C160.398 172.348 164.614 170.352 167.327 165.604C169.989 160.946 169.522 155.482 166.08 151.217C163.044 147.455 158.99 144.787 155.079 141.267ZM37.9437 16.17C39.3221 17.6267 40.6911 19.0925 42.0822 20.5373C43.3167 21.82 43.3147 22.9705 41.9885 24.2549C35.3482 30.6862 28.732 37.1429 22.1492 43.6332C20.6537 45.1078 19.4834 44.7173 18.1766 43.4142C15.1783 40.4249 12.1599 37.4533 9.07262 34.5568C8.17868 33.7182 7.38979 32.5088 5.87692 32.5318C4.52062 43.5709 9.95987 53.6367 20.1325 59.6713C22.9876 61.3652 24.9421 61.2628 27.365 58.8211C37.4098 48.6978 47.6064 38.724 57.8192 28.7692C62.7372 23.9756 62.6536 24.1489 59.0182 18.4454C54.5264 11.3988 48.1611 7.34122 40.0621 6.07143C36.7881 5.55814 33.2646 4.88647 29.8701 7.32068C32.1512 10.6722 35.1716 13.0014 37.9437 16.17ZM172.375 25.707C173.987 24.1704 175.571 22.6025 177.217 21.1037C180.468 18.1434 180.596 14.1965 181.138 10.279C175.783 9.78364 171.635 11.1893 168.416 14.3949C165.811 16.9894 163.244 19.6258 160.56 22.1362C159.072 23.527 158.525 24.8909 159.472 26.8415C160.468 28.8959 161.3 30.6753 164.141 30.8845C168.137 31.1789 169.658 28.0303 172.375 25.707ZM137.853 50.7306C129.269 59.3793 120.684 68.0279 112.099 76.6769C112.239 76.814 112.379 76.9512 112.518 77.0884C126.985 62.2897 141.453 47.491 155.92 32.6923C155.937 32.7041 155.954 32.7159 155.971 32.7277C150.05 38.6234 144.127 44.5191 137.853 50.7306ZM112.519 89.4885C114.514 89.5667 113.472 88.5082 113.002 87.9575C109.76 84.1556 106.49 80.3764 103.159 76.6528C102.454 75.8646 101.606 75.0375 100.34 75.1928C99.1084 80.7638 104.008 86.6333 112.519 89.4885Z" fill="white"/>
<path d="M44.0935 148.806C42.3525 150.462 40.6884 150.649 39.3321 148.874C38.1411 147.315 39.0611 146.018 40.2816 144.806C50.6382 134.515 60.9647 124.194 71.3019 113.884C71.7749 113.411 72.236 112.919 72.7572 112.506C73.8673 111.628 75.0376 111.631 76.1115 112.54C77.3326 113.573 77.423 114.87 76.5143 116.111C75.7963 117.091 74.8991 117.947 74.0359 118.813C64.1182 128.758 54.1912 138.693 44.0935 148.806Z" fill="white"/>
<path d="M133.848 149.513C124.402 140.638 115.968 131.124 107.281 121.852C89.1366 102.486 70.6777 83.4296 51.6928 64.884C49.9859 63.2169 47.1488 61.6854 47.8019 59.0604C48.5426 56.0868 51.9123 55.6518 54.4984 54.7081C57.4231 53.6409 59.4412 55.3809 61.3067 57.1648C67.9925 63.5608 74.6302 70.0078 81.2584 76.4634C101.306 95.9869 121.341 115.523 141.379 135.057C142.336 135.99 143.292 136.927 144.218 137.892C148.103 141.943 148.444 144.571 145.561 148.095C142 152.45 138.846 152.879 133.848 149.513ZM82.052 92.5035C98.2126 109.576 114.371 126.649 130.535 143.718C132.451 145.742 134.375 147.764 136.836 149.156C140.048 150.971 142.087 148.958 144.046 146.875C145.925 144.877 146.138 142.687 144.236 140.616C142.507 138.733 140.604 137.009 138.77 135.222C113.063 110.194 87.3568 85.1646 61.6379 60.1483C60.6041 59.143 59.5275 58.139 58.3251 57.36C56.3726 56.0954 51.925 56.8309 50.6871 58.802C49.2024 61.1665 51.7457 62.1395 52.9026 63.3126C62.4455 72.9927 72.0949 82.5678 82.052 92.5035Z" fill="white"/>
<path d="M161.797 154.218C165.011 157.366 165.795 160.895 164.041 164.727C162.478 168.144 159.649 169.941 155.807 169.918C151.979 169.894 149.219 168.164 147.669 164.645C146.119 161.126 147.177 156.977 150.223 154.384C153.546 151.556 157.203 151.452 161.797 154.218Z" fill="white"/>
</svg>
