<svg width="112" height="92" viewBox="0 0 112 92" fill="none" xmlns="http://www.w3.org/2000/svg">
<path d="M96.0205 88.375C102.521 88.375 107.791 83.105 107.791 76.6042C107.791 65.6458 98.6018 61.0611 88.958 59.1445M70.1247 41.2917C80.526 41.2917 88.958 32.8597 88.958 22.4583C88.958 12.057 80.526 3.625 70.1247 3.625M15.9788 88.3756H67.7705C74.2714 88.3756 79.5413 83.1056 79.5413 76.6047C79.5413 57.3911 51.2913 57.7714 41.8747 57.7714C32.458 57.7714 4.20801 57.3911 4.20801 76.6047C4.20801 83.1056 9.47799 88.3756 15.9788 88.3756ZM60.708 22.4583C60.708 32.8597 52.276 41.2917 41.8747 41.2917C31.4733 41.2917 23.0413 32.8597 23.0413 22.4583C23.0413 12.057 31.4733 3.625 41.8747 3.625C52.276 3.625 60.708 12.057 60.708 22.4583Z" stroke="#141414" stroke-width="7.0625" stroke-linecap="round" stroke-linejoin="round"/>
</svg>
