<svg width="98" height="92" viewBox="0 0 98 92" fill="none" xmlns="http://www.w3.org/2000/svg">
<path d="M93.7915 31.875L74.0168 51.6497L65.5416 43.1748M16.1038 88.3756H67.8955C74.3964 88.3756 79.6663 83.1056 79.6663 76.6047C79.6663 57.3911 51.4163 57.7714 41.9997 57.7714C32.583 57.7714 4.33301 57.3911 4.33301 76.6047C4.33301 83.1056 9.60299 88.3756 16.1038 88.3756ZM60.833 22.4583C60.833 32.8597 52.401 41.2917 41.9997 41.2917C31.5983 41.2917 23.1663 32.8597 23.1663 22.4583C23.1663 12.057 31.5983 3.625 41.9997 3.625C52.401 3.625 60.833 12.057 60.833 22.4583Z" stroke="#141414" stroke-width="7.0625" stroke-linecap="round" stroke-linejoin="round"/>
</svg>
