<svg width="73" height="44" viewBox="0 0 73 44" fill="none" xmlns="http://www.w3.org/2000/svg">
<g clip-path="url(#clip0_654_3088)">
<path d="M68.0172 38.9545C68.5005 36.7097 68.9794 34.5048 69.4377 32.2955C69.5291 31.8544 69.7092 31.6527 70.176 31.683C70.7856 31.7225 71.3998 31.7002 72.0116 31.6876C72.3735 31.6802 72.5294 31.7846 72.4215 32.1946C71.4331 35.9523 70.453 39.7122 69.477 43.4733C69.3923 43.7999 69.2363 43.9576 68.8909 43.9435C68.3671 43.9219 67.8386 43.8991 67.318 43.9464C66.7441 43.9986 66.4943 43.7995 66.3627 43.1983C65.9142 41.1504 65.4006 39.1177 64.91 37.0798C64.8811 36.9599 64.8359 36.8442 64.7782 36.6637C64.5428 36.9361 64.525 37.2414 64.461 37.5138C63.9975 39.4846 63.537 41.4562 63.103 43.4339C63.0212 43.8067 62.8692 43.9524 62.5076 43.9429C61.8783 43.9265 61.2481 43.9227 60.6191 43.9416C60.2609 43.9524 60.083 43.8137 59.994 43.452C59.0825 39.7469 58.1585 36.045 57.2409 32.3414C57.0897 31.7315 57.1183 31.6968 57.7281 31.6916C58.3226 31.6867 58.9189 31.7174 59.5114 31.6803C59.9585 31.6523 60.0713 31.8948 60.1488 32.2708C60.5932 34.428 61.0504 36.5824 61.506 38.7371C61.5531 38.9599 61.6181 39.1786 61.7591 39.4059C62.0735 37.9641 62.3897 36.5229 62.7015 35.0806C62.9172 34.083 63.1347 33.0857 63.334 32.0847C63.3905 31.801 63.5273 31.6894 63.7979 31.6918C64.4099 31.6973 65.0227 31.7093 65.6339 31.6843C66.0082 31.6689 66.1606 31.8397 66.2355 32.1926C66.6817 34.2944 67.1397 36.3935 67.595 38.4932C67.6593 38.79 67.7307 39.0852 67.8284 39.5097C67.913 39.2632 67.9594 39.1282 68.0172 38.9545Z" fill="white"/>
<path d="M56.5571 39.9493C56.1712 41.0918 55.7491 42.1626 54.8416 42.9571C54.2104 43.5097 53.5519 43.8745 52.6747 43.8533C50.7708 43.8072 48.8631 43.781 46.9609 43.8548C45.6732 43.9048 44.7994 43.3157 44.0833 42.327C43.9482 42.1404 43.7956 41.9509 43.7212 41.7371C43.3629 40.707 42.9114 39.7996 41.9958 39.1041C41.2832 38.5629 41.3894 37.6203 42.0465 36.9961C42.2845 36.7699 42.2925 36.4899 42.3316 36.2154C42.7295 33.4272 44.1463 31.3563 46.5432 30.0254C46.9916 29.7764 47.2495 29.314 47.758 29.1483C48.3538 28.9543 48.979 28.9022 49.5661 28.6379C49.9875 28.4482 50.406 28.8788 50.8641 28.9327C51.4789 29.0049 52.1693 29.0229 52.531 29.7295C52.5846 29.8343 52.7687 29.8678 52.8916 29.9358C55.4371 31.345 56.8322 33.5573 57.2037 36.477C57.2321 36.6996 57.2672 36.8763 57.4493 37.0356C58.0161 37.5315 58.0869 38.1186 57.7078 38.8092C57.4403 39.2964 56.9955 39.5899 56.5571 39.9493ZM42.8467 38.7314C44.4843 39.7897 46.2034 40.5614 48.2023 40.4678C49.1794 40.4221 50.1659 40.3872 51.1382 40.4705C52.9745 40.6277 54.5663 39.9495 56.1228 39.0959C56.415 38.9356 56.7059 38.7565 56.905 38.4735C57.0922 38.2077 57.1531 37.9222 56.7862 37.7695C56.4689 37.6375 56.4097 37.4084 56.3916 37.0948C56.2503 34.6581 55.2828 32.6718 53.3175 31.2469C53.0141 31.0269 52.7103 30.7831 52.3119 30.7549C52.1726 31.0905 52.1829 31.4136 52.1721 31.736C52.102 33.8172 52.0228 35.898 51.9581 37.9794C51.9476 38.316 51.8327 38.4649 51.4917 38.4642C51.1205 38.4634 51.051 38.2534 51.0711 37.943C51.0769 37.8533 51.0793 37.7635 51.083 37.6738C51.1779 35.3426 51.2796 33.0118 51.364 30.6803C51.3919 29.9098 51.3682 29.9009 50.6425 29.8168C50.5115 29.8016 50.3685 29.7264 50.2354 29.848C50.1394 30.0268 50.18 30.2283 50.179 30.4221C50.1743 31.3922 50.1712 32.3625 50.1775 33.3326C50.1796 33.6552 50.1398 33.8965 49.7359 33.8961C49.3395 33.8958 49.2804 33.6665 49.2834 33.3382C49.2926 32.386 49.2898 31.4338 49.294 30.4815C49.2971 29.7999 49.1517 29.702 48.5179 29.8682C48.1389 29.9676 48.1414 30.2243 48.1514 30.5245C48.2329 32.9826 48.3089 35.4408 48.3949 37.8986C48.4075 38.2579 48.3342 38.4978 47.9225 38.4914C47.5098 38.4851 47.5088 38.1912 47.5009 37.8932C47.4597 36.3318 47.4261 34.7701 47.3735 33.209C47.346 32.3918 47.2851 31.576 47.2375 30.7303C47.12 30.7574 47.0495 30.7607 46.991 30.7896C46.8179 30.8748 46.6405 30.9561 46.4805 31.0636C44.4447 32.4324 43.3243 34.3609 43.1373 36.8571C43.1162 37.1377 43.1506 37.4182 42.8503 37.6123C42.2341 38.0108 42.2345 38.1833 42.8467 38.7314ZM45.4763 41.0175C45.0723 40.8682 44.6682 40.7189 44.2345 40.5588C44.5866 42.0969 45.5792 42.9266 47.0205 42.9299C48.8738 42.9343 50.7272 42.9357 52.5805 42.9357C53.8549 42.9357 55.0812 41.8758 55.3482 40.5094C55.1183 40.5998 54.9126 40.6885 54.702 40.7619C54.0262 40.997 53.3788 41.348 52.6455 41.3624C51.2125 41.3906 49.7792 41.4208 48.3461 41.4157C47.4048 41.4125 46.4569 41.4011 45.4763 41.0175Z" fill="white"/>
<path d="M31.2223 35.3271C31.2233 36.5791 31.2233 36.5784 32.3816 36.5771C33.0107 36.5764 33.6402 36.592 34.2688 36.5742C34.6319 36.564 34.776 36.7212 34.7712 37.0813C34.7645 37.5839 34.7641 38.087 34.7787 38.5895C34.7903 38.9939 34.5948 39.1224 34.2295 39.1147C33.4083 39.0973 32.5865 39.1109 31.7657 39.0868C31.3659 39.0752 31.2055 39.2132 31.2129 39.6444C31.2336 40.883 31.2046 42.1225 31.2266 43.3611C31.2349 43.8219 31.0991 44.0143 30.6293 43.9873C30.0369 43.9534 29.4411 43.9668 28.8473 43.9822C28.4767 43.9919 28.3146 43.8619 28.3155 43.4549C28.3243 39.7199 28.3229 35.9848 28.3125 32.2499C28.3114 31.8461 28.4669 31.7235 28.8418 31.7256C30.8515 31.7364 32.8613 31.7361 34.871 31.7233C35.2672 31.7207 35.4507 31.8456 35.4289 32.2788C35.4036 32.7803 35.405 33.285 35.4292 33.7866C35.45 34.2174 35.2517 34.3628 34.868 34.3609C33.9418 34.3563 33.0156 34.3626 32.0894 34.3617C31.2216 34.3609 31.2216 34.3594 31.2223 35.3271Z" fill="white"/>
<path d="M39.1435 32.6999C39.1423 35.3931 39.1512 38.0332 39.1315 40.6731C39.1278 41.1633 39.2713 41.3396 39.7578 41.3225C40.7005 41.2894 41.6453 41.3217 42.5889 41.3058C42.9918 41.299 43.1603 41.4548 43.1398 41.8772C43.1162 42.3609 43.1165 42.8477 43.1392 43.3313C43.1597 43.7636 43.0149 43.9425 42.571 43.9382C40.6485 43.9195 38.7257 43.9205 36.8031 43.9321C36.3932 43.9347 36.2486 43.7746 36.252 43.3598C36.2651 41.8154 36.2559 40.2709 36.2555 38.7263C36.2548 36.625 36.254 34.5238 36.2542 32.4225C36.2543 31.6952 36.2556 31.6942 36.9398 31.6905C37.3593 31.6883 37.7788 31.6897 38.1983 31.6893C39.1503 31.6886 39.1503 31.6886 39.1435 32.6999Z" fill="white"/>
<path d="M44.2481 34.2014C44.5914 33.4415 45.0365 32.8016 45.5421 32.1997C45.7338 31.9717 45.8942 31.9569 46.1154 32.1466C46.3456 32.3442 46.3994 32.5132 46.1762 32.7696C45.6962 33.3208 45.3133 33.9435 44.9867 34.603C44.8521 34.8746 44.8007 35.2741 44.3335 35.0506C43.8714 34.8296 44.1351 34.5263 44.2481 34.2014Z" fill="white"/>
<path d="M54.039 32.3506C54.62 32.9638 55.0096 33.6524 55.3087 34.4055C55.4345 34.7222 55.3648 34.9052 55.0719 35.0474C54.7391 35.209 54.644 34.9862 54.5387 34.7424C54.2486 34.0709 53.9194 33.4252 53.4254 32.879C53.2586 32.6945 53.0219 32.4949 53.3204 32.2038C53.616 31.9154 53.8135 32.0898 54.039 32.3506Z" fill="white"/>
<path d="M2.00652 43.5398C1.61048 43.54 1.2336 43.5412 0.856725 43.5403C0.561225 43.5396 0.500084 43.4629 0.500065 43.0896C0.499891 39.4084 0.500123 35.7271 0.500274 32.0458C0.500279 31.9024 0.499237 31.7589 0.501184 31.6155C0.504048 31.4044 0.594502 31.2944 0.760334 31.2766C0.792052 31.2731 0.824167 31.2751 0.856099 31.2751C2.97682 31.2751 5.09755 31.2748 7.21826 31.2754C7.56712 31.2755 7.61601 31.3388 7.61635 31.7727C7.61694 32.5297 7.61835 33.2867 7.6181 34.0436C7.618 34.379 7.5619 34.451 7.29293 34.4513C6.04733 34.4529 4.80172 34.4524 3.55611 34.4528C3.283 34.4529 3.28269 34.4531 3.28246 34.8012C3.2823 35.0643 3.29131 35.3277 3.28081 35.59C3.27226 35.8033 3.34254 35.8623 3.50576 35.8614C4.69385 35.8552 5.88199 35.858 7.0701 35.8582C7.41093 35.8583 7.49247 35.9519 7.489 36.3726C7.48308 37.0893 7.50494 37.8064 7.46763 38.5229C7.45249 38.8134 7.4031 38.8891 7.16832 38.8906C6.72759 38.8934 6.28684 38.8888 5.84609 38.8882C5.07958 38.8872 4.31305 38.8864 3.54652 38.8864C3.30371 38.8864 3.28487 38.91 3.28373 39.2124C3.28265 39.4993 3.29341 39.7868 3.28034 40.0728C3.27037 40.291 3.32767 40.3614 3.50605 40.3601C4.75163 40.3515 5.99725 40.3551 7.24285 40.3548C7.585 40.3547 7.61669 40.3927 7.61701 40.8167C7.6176 41.5976 7.61756 42.3785 7.61686 43.1594C7.61658 43.4728 7.56493 43.5401 7.31464 43.5402C5.55166 43.5409 3.78868 43.5401 2.00652 43.5398Z" fill="white"/>
<path d="M16.2476 39.197C16.3064 40.5671 16.0129 41.7153 15.178 42.5495C14.7386 42.9885 14.2459 43.2709 13.7094 43.4139C12.8943 43.6312 12.0837 43.6133 11.2856 43.2864C10.0951 42.7987 9.40042 41.7172 9.17392 40.0861C9.16227 40.0022 9.14841 39.9185 9.14133 39.8339C9.1154 39.5235 9.19723 39.3955 9.42647 39.3946C10.0764 39.3924 10.7264 39.3996 11.3762 39.3882C11.55 39.3852 11.6404 39.4672 11.654 39.6956C11.6966 40.4097 12.144 40.7576 12.5981 40.7957C12.8812 40.8196 13.1552 40.7736 13.401 40.5667C13.6372 40.3679 13.7614 40.0844 13.7283 39.705C13.6985 39.3638 13.52 39.1781 13.3038 39.0539C12.9662 38.8597 12.6049 38.7761 12.2474 38.6785C11.7645 38.5465 11.2849 38.4049 10.8217 38.1695C9.47502 37.4856 9.08559 35.8986 9.29677 34.3671C9.47712 33.0594 10.089 32.2043 10.9906 31.7408C12.1721 31.1332 13.3663 31.1029 14.5118 31.8928C15.3518 32.472 15.8136 33.4471 15.9482 34.6982C15.9556 34.7672 15.9673 34.8357 15.9719 34.905C15.9863 35.1218 15.8974 35.2731 15.7344 35.2745C15.0554 35.2803 14.3765 35.2786 13.6976 35.2761C13.5515 35.2756 13.5 35.1478 13.4883 34.9716C13.4535 34.4418 13.203 34.1024 12.8082 34.0635C12.6124 34.0442 12.4141 34.024 12.2215 34.109C11.9352 34.2354 11.7782 34.4697 11.7662 34.7893C11.7516 35.1819 11.8505 35.3917 12.1607 35.5713C12.5246 35.782 12.9145 35.8765 13.2981 35.997C13.761 36.1424 14.221 36.2976 14.6651 36.5307C15.5728 37.0071 16.1402 37.8428 16.2476 39.197Z" fill="white"/>
<path d="M22.4291 40.2158C22.4313 41.1826 22.435 42.1207 22.4352 43.0586C22.4353 43.4847 22.3647 43.5662 21.9944 43.567C21.0662 43.5693 20.138 43.569 19.2099 43.5673C18.8603 43.5666 18.7927 43.4893 18.7927 43.0987C18.7927 41.8164 18.7685 40.5346 18.7827 39.2517C18.8045 37.2611 18.7715 35.2697 18.762 33.2787C18.7592 32.6787 18.7651 32.6632 19.2687 32.4489C20.1371 32.0792 21.0066 31.7128 21.8774 31.3503C22.287 31.1798 22.4283 31.2874 22.4287 31.7733C22.4306 34.5779 22.4293 37.3826 22.4291 40.2158Z" fill="white"/>
<path d="M39.1062 27.1246C36.6198 24.256 34.1404 21.4332 31.4851 18.5845C31.3605 19.7559 30.5782 20.3251 29.9292 20.9865C27.6946 23.2636 25.4535 25.534 23.2094 27.8012C22.1448 28.8768 20.5465 28.9025 19.531 27.8756C18.5173 26.8506 18.5361 25.1465 19.5931 24.0541C21.8491 21.7224 24.1211 19.4071 26.3714 17.0696C27.0269 16.3886 27.6934 15.7754 28.6876 15.857C28.7646 15.6194 28.6195 15.5372 28.5302 15.4438C27.2437 14.0981 25.9552 12.756 24.555 11.5299C23.8373 10.9015 22.9741 10.6311 22.1261 10.3015C21.8895 10.2095 21.7628 10.3622 21.6285 10.4976C21.285 10.8443 20.9201 10.8613 20.4779 10.6821C17.9533 9.65947 16.6002 6.698 17.433 4.02792C17.5794 3.55841 17.7875 3.59904 18.0613 3.85203C18.7239 4.46431 19.389 5.07543 20.021 5.72015C20.3194 6.02454 20.5271 5.9946 20.7978 5.71001C21.4562 5.01788 22.1293 4.34047 22.8248 3.62805C22.0291 2.59977 21.0199 1.80796 20.2539 0.713019C21.2498 0.080639 22.2613 -0.0913185 23.3252 0.0423467C24.943 0.245599 26.2333 1.01109 27.1038 2.45925C27.1495 2.53542 27.2044 2.60613 27.2583 2.67684C28.0558 3.72471 28.0588 3.84936 27.2516 4.87157C27.1312 5.02402 27.085 5.18086 27.0934 5.36633C27.1491 6.58647 27.3138 7.72639 28.3102 8.61563C29.2712 9.4733 30.1201 10.4633 31.0225 11.3909C31.2922 11.6681 31.576 11.9306 31.9045 12.2495C32.0209 11.6932 32.1195 11.1823 32.7349 11.1072C33.2778 11.041 33.6532 11.374 34.1457 11.8281C34.7425 11.1625 35.3033 10.4995 35.9028 9.87586C37.537 8.17595 39.1843 6.4894 40.8352 4.80651C41.0714 4.56574 41.238 4.32931 41.2061 3.96593C41.1742 3.60313 41.3333 3.31034 41.5874 3.05911C42.2047 2.44884 42.8147 1.83091 43.4254 1.21376C43.5408 1.09725 43.6674 1.01331 43.8285 0.978951C44.5978 0.814718 45.3662 0.645246 46.1544 0.60438C46.6261 0.579923 46.6857 0.71398 46.6515 1.21248C46.5296 2.99156 45.6344 4.27258 44.3058 5.32914C43.8871 5.66209 43.5015 5.95434 42.9506 5.89715C42.6987 5.87101 42.5248 6.00538 42.3568 6.17761C40.6112 7.96629 38.8578 9.74688 37.1172 11.5405C36.552 12.1228 35.9066 12.6243 35.4036 13.2851C35.6108 13.7712 36.1652 14.0328 36.1441 14.6247C36.1261 15.1249 35.9053 15.2812 34.9356 15.4152C35.7996 16.2398 36.6246 17.0226 37.4448 17.8106C39.4629 19.749 41.5338 21.6271 43.5968 23.5143C44.7639 24.582 44.8493 26.4111 43.8528 27.5971C42.8761 28.7597 41.1371 28.9175 39.9237 27.9362C39.637 27.7045 39.3938 27.4158 39.1062 27.1246ZM24.1806 25.6038C26.1463 23.6092 28.1129 21.6158 30.0763 19.619C30.3504 19.3404 30.5936 19.0553 30.6 18.6068C30.6121 17.7639 30.0826 17.3364 29.4577 17.0181C28.7993 16.6827 28.0996 16.5867 27.5025 17.1628C26.9679 17.6786 26.4817 18.2471 25.9637 18.7816C24.0397 20.7677 22.1038 22.7417 20.1881 24.7364C19.4529 25.502 19.4514 26.5439 20.1332 27.2372C20.7981 27.9133 21.8471 27.9048 22.5874 27.1969C23.1119 26.6952 23.6146 26.1693 24.1806 25.6038ZM41.5128 22.7684C39.4479 20.9631 37.4752 19.053 35.477 17.1718C32.7158 14.5721 30.1672 11.7529 27.4992 9.05724C26.8709 8.42229 26.4367 7.69158 26.3518 6.75935C26.3309 6.53068 26.3695 6.25352 26.1708 6.04024C25.0566 7.22429 23.9512 8.39901 22.829 9.5916C24.3861 9.95957 25.5031 11.1494 26.6471 12.2762C30.6386 16.2081 34.393 20.3733 38.0707 24.6128C38.7684 25.4172 39.4681 26.2204 40.1875 27.0042C40.5395 27.3878 40.9644 27.6801 41.503 27.7181C42.3472 27.7777 43.0085 27.456 43.434 26.6907C43.8515 25.94 43.7783 25.0594 43.2384 24.372C42.7622 23.7657 42.1263 23.3356 41.5128 22.7684ZM23.1393 2.60616C23.3555 2.84093 23.5702 3.07717 23.7884 3.31004C23.9821 3.51678 23.9817 3.7022 23.7737 3.90922C22.7321 4.94576 21.6943 5.9864 20.6618 7.03245C20.4272 7.27012 20.2436 7.20718 20.0386 6.99715C19.5683 6.51536 19.0949 6.03642 18.6106 5.5696C18.4704 5.43444 18.3466 5.23952 18.1093 5.24321C17.8966 7.02241 18.7498 8.64475 20.3454 9.61735C20.7933 9.89036 21.0999 9.87386 21.4799 9.48032C23.0555 7.84873 24.6549 6.24124 26.2569 4.63679C27.0283 3.86419 27.0152 3.89212 26.445 2.97289C25.7404 1.83717 24.7419 1.1832 23.4716 0.978546C22.958 0.895817 22.4053 0.787563 21.8729 1.17989C22.2307 1.72007 22.7044 2.09547 23.1393 2.60616ZM44.2258 4.14326C44.4787 3.8956 44.7271 3.6429 44.9853 3.40133C45.4953 2.92421 45.5153 2.28808 45.6004 1.65669C44.7604 1.57685 44.1098 1.8034 43.6049 2.32006C43.1962 2.73822 42.7936 3.16314 42.3725 3.56774C42.1392 3.7919 42.0533 4.01172 42.2018 4.32611C42.3581 4.65722 42.4887 4.944 42.9342 4.97773C43.561 5.02518 43.7996 4.51771 44.2258 4.14326ZM38.8108 8.17636C37.4643 9.57029 36.1177 10.9642 34.7711 12.3582C34.7931 12.3803 34.815 12.4024 34.8368 12.4245C37.1061 10.0394 39.3755 7.65423 41.6447 5.2691C41.6474 5.27099 41.6501 5.27289 41.6528 5.27479C40.7239 6.22502 39.795 7.17525 38.8108 8.17636ZM34.837 14.423C35.1498 14.4357 34.9864 14.2651 34.9127 14.1763C34.4042 13.5635 33.8913 12.9544 33.3688 12.3543C33.2582 12.2273 33.1252 12.094 32.9265 12.119C32.7334 13.0169 33.5019 13.9629 34.837 14.423Z" fill="white"/>
<path d="M24.1053 23.9834C23.8322 24.2502 23.5712 24.2804 23.3585 23.9943C23.1716 23.743 23.316 23.534 23.5074 23.3386C25.1319 21.6801 26.7517 20.0165 28.3732 18.3548C28.4474 18.2787 28.5197 18.1993 28.6014 18.1328C28.7756 17.9912 28.9591 17.9917 29.1276 18.1382C29.3191 18.3048 29.3333 18.5138 29.1908 18.7138C29.0782 18.8717 28.9374 19.0098 28.802 19.1493C27.2464 20.7521 25.6892 22.3533 24.1053 23.9834Z" fill="white"/>
<path d="M38.184 24.0973C36.7022 22.667 35.3792 21.1335 34.0167 19.6391C31.1706 16.5179 28.2752 13.4465 25.2972 10.4575C25.0295 10.1888 24.5845 9.94195 24.6869 9.51888C24.8031 9.03962 25.3317 8.9695 25.7373 8.8174C26.1961 8.6454 26.5126 8.92584 26.8052 9.21336C27.854 10.2442 28.8951 11.2833 29.9348 12.3238C33.0794 15.4704 36.222 18.6191 39.3651 21.7674C39.5153 21.9178 39.6653 22.0688 39.8106 22.2244C40.42 22.8772 40.4734 23.3008 40.0212 23.8688C39.4625 24.5708 38.9679 24.6398 38.184 24.0973ZM30.0593 14.909C32.5942 17.6606 35.1288 20.4123 37.6642 23.1634C37.9647 23.4895 38.2666 23.8154 38.6526 24.0397C39.1564 24.3323 39.4763 24.0079 39.7836 23.6721C40.0783 23.3502 40.1117 22.9971 39.8133 22.6633C39.5421 22.3599 39.2436 22.0819 38.9559 21.794C34.9236 17.7601 30.8914 13.7262 26.8572 9.69422C26.695 9.53219 26.5262 9.37037 26.3376 9.24482C26.0313 9.041 25.3336 9.15955 25.1395 9.47723C24.9066 9.85832 25.3055 10.0151 25.487 10.2042C26.9839 11.7644 28.4975 13.3076 30.0593 14.909Z" fill="white"/>
<path d="M42.5675 24.8557C43.0716 25.363 43.1946 25.9318 42.9194 26.5495C42.6742 27.1001 42.2305 27.3898 41.6278 27.386C41.0275 27.3823 40.5945 27.1034 40.3513 26.5362C40.1081 25.9691 40.2742 25.3004 40.7519 24.8825C41.2732 24.4266 41.8468 24.4099 42.5675 24.8557Z" fill="white"/>
</g>
<defs>
<clipPath id="clip0_654_3088">
<rect width="72" height="44" fill="white" transform="translate(0.5)"/>
</clipPath>
</defs>
</svg>
