<svg width="72" height="44" viewBox="0 0 72 44" fill="none" xmlns="http://www.w3.org/2000/svg">
<g clip-path="url(#clip0_302_3126)">
<path d="M67.5182 38.9545C68.0014 36.7097 68.4804 34.5048 68.9387 32.2955C69.0301 31.8544 69.2102 31.6527 69.677 31.683C70.2865 31.7225 70.9007 31.7002 71.5125 31.6876C71.8744 31.6802 72.0304 31.7846 71.9225 32.1946C70.9341 35.9523 69.9539 39.7122 68.978 43.4733C68.8933 43.7999 68.7373 43.9576 68.3919 43.9435C67.868 43.9219 67.3396 43.8991 66.819 43.9464C66.2451 43.9986 65.9953 43.7995 65.8637 43.1983C65.4152 41.1504 64.9016 39.1177 64.411 37.0798C64.3821 36.9599 64.3369 36.8442 64.2792 36.6637C64.0437 36.9361 64.026 37.2414 63.962 37.5138C63.4985 39.4846 63.038 41.4562 62.604 43.4339C62.5222 43.8067 62.3702 43.9524 62.0085 43.9429C61.3793 43.9265 60.7491 43.9227 60.1201 43.9416C59.7618 43.9524 59.5839 43.8137 59.4949 43.452C58.5835 39.7469 57.6595 36.045 56.7418 32.3414C56.5907 31.7315 56.6192 31.6968 57.229 31.6916C57.8236 31.6867 58.4199 31.7174 59.0124 31.6803C59.4595 31.6523 59.5723 31.8948 59.6498 32.2708C60.0941 34.428 60.5513 36.5824 61.0069 38.7371C61.0541 38.9599 61.119 39.1786 61.2601 39.4059C61.5744 37.9641 61.8907 36.5229 62.2025 35.0806C62.4182 34.083 62.6357 33.0857 62.835 32.0847C62.8914 31.801 63.0283 31.6894 63.2989 31.6918C63.9109 31.6973 64.5237 31.7093 65.1349 31.6843C65.5091 31.6689 65.6615 31.8397 65.7365 32.1926C66.1826 34.2944 66.6407 36.3935 67.096 38.4932C67.1603 38.79 67.2317 39.0852 67.3294 39.5097C67.414 39.2632 67.4604 39.1282 67.5182 38.9545Z" fill="black"/>
<path d="M56.0581 39.9493C55.6722 41.0918 55.2501 42.1626 54.3426 42.9571C53.7114 43.5097 53.0529 43.8745 52.1756 43.8533C50.2717 43.8072 48.364 43.781 46.4619 43.8548C45.1742 43.9048 44.3004 43.3157 43.5842 42.327C43.4492 42.1404 43.2965 41.9509 43.2221 41.7371C42.8639 40.707 42.4124 39.7996 41.4968 39.1041C40.7842 38.5629 40.8904 37.6203 41.5475 36.9961C41.7855 36.7699 41.7935 36.4899 41.8326 36.2154C42.2305 33.4272 43.6473 31.3563 46.0442 30.0254C46.4926 29.7764 46.7504 29.314 47.259 29.1483C47.8548 28.9543 48.48 28.9022 49.067 28.6379C49.4884 28.4482 49.907 28.8788 50.365 28.9327C50.9799 29.0049 51.6703 29.0229 52.032 29.7295C52.0856 29.8343 52.2697 29.8678 52.3926 29.9358C54.9381 31.345 56.3332 33.5573 56.7047 36.477C56.7331 36.6996 56.7682 36.8763 56.9503 37.0356C57.5171 37.5315 57.5879 38.1186 57.2088 38.8092C56.9413 39.2964 56.4965 39.5899 56.0581 39.9493ZM42.3476 38.7314C43.9853 39.7897 45.7044 40.5614 47.7032 40.4678C48.6804 40.4221 49.6669 40.3872 50.6392 40.4705C52.4755 40.6277 54.0673 39.9495 55.6238 39.0959C55.916 38.9356 56.2069 38.7565 56.406 38.4735C56.5931 38.2077 56.6541 37.9222 56.2872 37.7695C55.9699 37.6375 55.9107 37.4084 55.8926 37.0948C55.7513 34.6581 54.7838 32.6718 52.8185 31.2469C52.5151 31.0269 52.2113 30.7831 51.8129 30.7549C51.6735 31.0905 51.6839 31.4136 51.6731 31.736C51.603 33.8172 51.5238 35.898 51.4591 37.9794C51.4486 38.316 51.3337 38.4649 50.9927 38.4642C50.6214 38.4634 50.552 38.2534 50.5721 37.943C50.5779 37.8533 50.5803 37.7635 50.584 37.6738C50.6789 35.3426 50.7806 33.0118 50.8649 30.6803C50.8929 29.9098 50.8691 29.9009 50.1435 29.8168C50.0125 29.8016 49.8694 29.7264 49.7364 29.848C49.6404 30.0268 49.6809 30.2283 49.68 30.4221C49.6753 31.3922 49.6722 32.3625 49.6785 33.3326C49.6806 33.6552 49.6407 33.8965 49.2369 33.8961C48.8404 33.8958 48.7814 33.6665 48.7844 33.3382C48.7935 32.386 48.7908 31.4338 48.795 30.4815C48.798 29.7999 48.6527 29.702 48.0188 29.8682C47.6398 29.9676 47.6424 30.2243 47.6523 30.5245C47.7339 32.9826 47.8099 35.4408 47.8958 37.8986C47.9084 38.2579 47.8352 38.4978 47.4234 38.4914C47.0107 38.4851 47.0098 38.1912 47.0019 37.8932C46.9607 36.3318 46.9271 34.7701 46.8745 33.209C46.847 32.3918 46.786 31.576 46.7385 30.7303C46.6209 30.7574 46.5505 30.7607 46.4919 30.7896C46.3189 30.8748 46.1415 30.9561 45.9814 31.0636C43.9457 32.4324 42.8253 34.3609 42.6383 36.8571C42.6172 37.1377 42.6516 37.4182 42.3513 37.6123C41.7351 38.0108 41.7354 38.1833 42.3476 38.7314ZM44.9773 41.0175C44.5732 40.8682 44.1692 40.7189 43.7355 40.5588C44.0876 42.0969 45.0802 42.9266 46.5214 42.9299C48.3748 42.9343 50.2282 42.9357 52.0815 42.9357C53.3559 42.9357 54.5822 41.8758 54.8492 40.5094C54.6192 40.5998 54.4136 40.6885 54.203 40.7619C53.5272 40.997 52.8798 41.348 52.1465 41.3624C50.7135 41.3906 49.2802 41.4208 47.847 41.4157C46.9058 41.4125 45.9579 41.4011 44.9773 41.0175Z" fill="black"/>
<path d="M30.7233 35.3271C30.7242 36.5791 30.7242 36.5784 31.8825 36.5771C32.5116 36.5764 33.1412 36.592 33.7698 36.5742C34.1329 36.564 34.277 36.7212 34.2722 37.0813C34.2655 37.5839 34.265 38.087 34.2796 38.5895C34.2913 38.9939 34.0957 39.1224 33.7305 39.1147C32.9093 39.0973 32.0875 39.1109 31.2666 39.0868C30.8669 39.0752 30.7065 39.2132 30.7138 39.6444C30.7346 40.883 30.7056 42.1225 30.7276 43.3611C30.7359 43.8219 30.6001 44.0143 30.1303 43.9873C29.5379 43.9534 28.9421 43.9668 28.3482 43.9822C27.9776 43.9919 27.8156 43.8619 27.8165 43.4549C27.8252 39.7199 27.8239 35.9848 27.8135 32.2499C27.8123 31.8461 27.9679 31.7235 28.3428 31.7256C30.3525 31.7364 32.3623 31.7361 34.372 31.7233C34.7682 31.7207 34.9517 31.8456 34.9298 32.2788C34.9045 32.7803 34.906 33.285 34.9301 33.7866C34.9509 34.2174 34.7527 34.3628 34.3689 34.3609C33.4428 34.3563 32.5166 34.3626 31.5903 34.3617C30.7226 34.3609 30.7226 34.3594 30.7233 35.3271Z" fill="black"/>
<path d="M38.6435 32.6999C38.6423 35.3931 38.6512 38.0332 38.6315 40.6731C38.6278 41.1633 38.7713 41.3396 39.2578 41.3225C40.2005 41.2894 41.1453 41.3217 42.0889 41.3058C42.4918 41.299 42.6603 41.4548 42.6398 41.8772C42.6162 42.3609 42.6165 42.8477 42.6392 43.3313C42.6597 43.7636 42.5149 43.9425 42.071 43.9382C40.1485 43.9195 38.2257 43.9205 36.3031 43.9321C35.8932 43.9347 35.7486 43.7746 35.752 43.3598C35.7651 41.8154 35.7559 40.2709 35.7555 38.7263C35.7548 36.625 35.754 34.5238 35.7542 32.4225C35.7543 31.6952 35.7556 31.6942 36.4398 31.6905C36.8593 31.6883 37.2788 31.6897 37.6983 31.6893C38.6503 31.6886 38.6503 31.6886 38.6435 32.6999Z" fill="black"/>
<path d="M43.7481 34.2014C44.0914 33.4415 44.5365 32.8016 45.0421 32.1997C45.2338 31.9717 45.3942 31.9569 45.6154 32.1466C45.8456 32.3442 45.8994 32.5132 45.6762 32.7696C45.1962 33.3208 44.8133 33.9435 44.4867 34.603C44.3521 34.8746 44.3007 35.2741 43.8335 35.0506C43.3714 34.8296 43.6351 34.5263 43.7481 34.2014Z" fill="black"/>
<path d="M53.539 32.3506C54.12 32.9638 54.5096 33.6524 54.8087 34.4055C54.9345 34.7222 54.8648 34.9052 54.5719 35.0474C54.2391 35.209 54.144 34.9862 54.0387 34.7424C53.7486 34.0709 53.4194 33.4252 52.9254 32.879C52.7586 32.6945 52.5219 32.4949 52.8204 32.2038C53.116 31.9154 53.3135 32.0898 53.539 32.3506Z" fill="black"/>
<path d="M1.50652 43.5398C1.11048 43.54 0.733599 43.5412 0.356725 43.5403C0.0612247 43.5396 8.40185e-05 43.4629 6.531e-05 43.0896C-0.000109008 39.4084 0.000122629 35.7271 0.000273562 32.0458C0.000279428 31.9024 -0.000763007 31.7589 0.00118378 31.6155C0.00404783 31.4044 0.0945017 31.2944 0.260334 31.2766C0.292052 31.2731 0.324167 31.2751 0.356099 31.2751C2.47682 31.2751 4.59755 31.2748 6.71826 31.2754C7.06712 31.2755 7.11601 31.3388 7.11635 31.7727C7.11694 32.5297 7.11835 33.2867 7.1181 34.0436C7.118 34.379 7.0619 34.451 6.79293 34.4513C5.54733 34.4529 4.30172 34.4524 3.05611 34.4528C2.783 34.4529 2.78269 34.4531 2.78246 34.8012C2.7823 35.0643 2.79131 35.3277 2.78081 35.59C2.77226 35.8033 2.84254 35.8623 3.00576 35.8614C4.19385 35.8552 5.38199 35.858 6.5701 35.8582C6.91093 35.8583 6.99247 35.9519 6.989 36.3726C6.98308 37.0893 7.00494 37.8064 6.96763 38.5229C6.95249 38.8134 6.9031 38.8891 6.66832 38.8906C6.22759 38.8934 5.78684 38.8888 5.34609 38.8882C4.57958 38.8872 3.81305 38.8864 3.04652 38.8864C2.80371 38.8864 2.78487 38.91 2.78373 39.2124C2.78265 39.4993 2.79341 39.7868 2.78034 40.0728C2.77037 40.291 2.82767 40.3614 3.00605 40.3601C4.25163 40.3515 5.49725 40.3551 6.74285 40.3548C7.085 40.3547 7.11669 40.3927 7.11701 40.8167C7.1176 41.5976 7.11756 42.3785 7.11686 43.1594C7.11658 43.4728 7.06493 43.5401 6.81464 43.5402C5.05166 43.5409 3.28868 43.5401 1.50652 43.5398Z" fill="black"/>
<path d="M15.7486 39.197C15.8074 40.5671 15.5139 41.7153 14.679 42.5495C14.2395 42.9885 13.7469 43.2709 13.2103 43.4139C12.3953 43.6312 11.5847 43.6133 10.7866 43.2864C9.5961 42.7987 8.90139 41.7172 8.6749 40.0861C8.66325 40.0022 8.64938 39.9185 8.64231 39.8339C8.61637 39.5235 8.69821 39.3955 8.92744 39.3946C9.57738 39.3924 10.2274 39.3996 10.8772 39.3882C11.051 39.3852 11.1413 39.4672 11.155 39.6956C11.1976 40.4097 11.645 40.7576 12.0991 40.7957C12.3821 40.8196 12.6562 40.7736 12.902 40.5667C13.1381 40.3679 13.2624 40.0844 13.2292 39.705C13.1994 39.3638 13.021 39.1781 12.8048 39.0539C12.4671 38.8597 12.1059 38.7761 11.7484 38.6785C11.2655 38.5465 10.7859 38.4049 10.3226 38.1695C8.976 37.4856 8.58657 35.8986 8.79775 34.3671C8.9781 33.0594 9.58993 32.2043 10.4915 31.7408C11.673 31.1332 12.8672 31.1029 14.0127 31.8928C14.8528 32.472 15.3146 33.4471 15.4492 34.6982C15.4566 34.7672 15.4683 34.8357 15.4729 34.905C15.4873 35.1218 15.3984 35.2731 15.2354 35.2745C14.5564 35.2803 13.8774 35.2786 13.1986 35.2761C13.0525 35.2756 13.001 35.1478 12.9893 34.9716C12.9545 34.4418 12.7039 34.1024 12.3092 34.0635C12.1133 34.0442 11.9151 34.024 11.7225 34.109C11.4362 34.2354 11.2791 34.4697 11.2672 34.7893C11.2526 35.1819 11.3515 35.3917 11.6617 35.5713C12.0256 35.782 12.4155 35.8765 12.7991 35.997C13.262 36.1424 13.722 36.2976 14.1661 36.5307C15.0737 37.0071 15.6411 37.8428 15.7486 39.197Z" fill="black"/>
<path d="M21.9301 40.2158C21.9323 41.1826 21.9359 42.1207 21.9362 43.0586C21.9363 43.4847 21.8656 43.5662 21.4953 43.567C20.5672 43.5693 19.639 43.569 18.7109 43.5673C18.3612 43.5666 18.2937 43.4893 18.2937 43.0987C18.2937 41.8164 18.2695 40.5346 18.2837 39.2517C18.3055 37.2611 18.2725 35.2697 18.263 33.2787C18.2602 32.6787 18.266 32.6632 18.7696 32.4489C19.638 32.0792 20.5076 31.7128 21.3784 31.3503C21.788 31.1798 21.9292 31.2874 21.9297 31.7733C21.9315 34.5779 21.9303 37.3826 21.9301 40.2158Z" fill="black"/>
<path d="M38.6071 27.1246C36.1208 24.256 33.6413 21.4332 30.986 18.5845C30.8615 19.7559 30.0792 20.3251 29.4302 20.9865C27.1955 23.2636 24.9545 25.534 22.7104 27.8012C21.6458 28.8768 20.0475 28.9025 19.0319 27.8756C18.0183 26.8506 18.0371 25.1465 19.0941 24.0541C21.3501 21.7224 23.6221 19.4071 25.8724 17.0696C26.5279 16.3886 27.1944 15.7754 28.1885 15.857C28.2656 15.6194 28.1204 15.5372 28.0312 15.4438C26.7447 14.0981 25.4562 12.756 24.056 11.5299C23.3383 10.9015 22.475 10.6311 21.6271 10.3015C21.3905 10.2095 21.2637 10.3622 21.1295 10.4976C20.786 10.8443 20.421 10.8613 19.9789 10.6821C17.4542 9.65947 16.1012 6.698 16.934 4.02792C17.0804 3.55841 17.2885 3.59904 17.5622 3.85203C18.2248 4.46431 18.8899 5.07543 19.522 5.72015C19.8204 6.02454 20.0281 5.9946 20.2988 5.71001C20.9572 5.01788 21.6302 4.34047 22.3258 3.62805C21.5301 2.59977 20.5209 1.80796 19.7549 0.713019C20.7508 0.080639 21.7623 -0.0913185 22.8262 0.0423467C24.444 0.245599 25.7342 1.01109 26.6048 2.45925C26.6505 2.53542 26.7054 2.60613 26.7592 2.67684C27.5568 3.72471 27.5597 3.84936 26.7525 4.87157C26.6321 5.02402 26.586 5.18086 26.5944 5.36633C26.6501 6.58647 26.8148 7.72639 27.8112 8.61563C28.7722 9.4733 29.6211 10.4633 30.5235 11.3909C30.7931 11.6681 31.0769 11.9306 31.4055 12.2495C31.5218 11.6932 31.6205 11.1823 32.2359 11.1072C32.7788 11.041 33.1541 11.374 33.6467 11.8281C34.2435 11.1625 34.8043 10.4995 35.4038 9.87586C37.0379 8.17595 38.6853 6.4894 40.3362 4.80651C40.5723 4.56574 40.739 4.32931 40.7071 3.96593C40.6752 3.60313 40.8343 3.31034 41.0884 3.05911C41.7056 2.44884 42.3157 1.83091 42.9264 1.21376C43.0417 1.09725 43.1684 1.01331 43.3294 0.978951C44.0988 0.814718 44.8671 0.645246 45.6554 0.60438C46.127 0.579923 46.1867 0.71398 46.1524 1.21248C46.0306 2.99156 45.1354 4.27258 43.8068 5.32914C43.3881 5.66209 43.0025 5.95434 42.4516 5.89715C42.1997 5.87101 42.0258 6.00538 41.8577 6.17761C40.1122 7.96629 38.3588 9.74688 36.6182 11.5405C36.053 12.1228 35.4075 12.6243 34.9046 13.2851C35.1118 13.7712 35.6662 14.0328 35.6451 14.6247C35.6271 15.1249 35.4063 15.2812 34.4366 15.4152C35.3006 16.2398 36.1255 17.0226 36.9458 17.8106C38.9639 19.749 41.0348 21.6271 43.0978 23.5143C44.2649 24.582 44.3502 26.4111 43.3538 27.5971C42.3771 28.7597 40.638 28.9175 39.4246 27.9362C39.138 27.7045 38.8948 27.4158 38.6071 27.1246ZM23.6816 25.6038C25.6472 23.6092 27.6139 21.6158 29.5773 19.619C29.8514 19.3404 30.0945 19.0553 30.1009 18.6068C30.1131 17.7639 29.5836 17.3364 28.9587 17.0181C28.3003 16.6827 27.6006 16.5867 27.0035 17.1628C26.4688 17.6786 25.9827 18.2471 25.4647 18.7816C23.5407 20.7677 21.6047 22.7417 19.6891 24.7364C18.9539 25.502 18.9524 26.5439 19.6342 27.2372C20.2991 27.9133 21.3481 27.9048 22.0884 27.1969C22.6128 26.6952 23.1156 26.1693 23.6816 25.6038ZM41.0138 22.7684C38.9489 20.9631 36.9762 19.053 34.978 17.1718C32.2168 14.5721 29.6682 11.7529 27.0002 9.05724C26.3719 8.42229 25.9377 7.69158 25.8527 6.75935C25.8319 6.53068 25.8705 6.25352 25.6718 6.04024C24.5576 7.22429 23.4522 8.39901 22.33 9.5916C23.8871 9.95957 25.0041 11.1494 26.1481 12.2762C30.1396 16.2081 33.894 20.3733 37.5716 24.6128C38.2694 25.4172 38.9691 26.2204 39.6885 27.0042C40.0405 27.3878 40.4654 27.6801 41.004 27.7181C41.8482 27.7777 42.5095 27.456 42.935 26.6907C43.3525 25.94 43.2793 25.0594 42.7394 24.372C42.2632 23.7657 41.6272 23.3356 41.0138 22.7684ZM22.6402 2.60616C22.8564 2.84093 23.0712 3.07717 23.2894 3.31004C23.483 3.51678 23.4827 3.7022 23.2747 3.90922C22.2331 4.94576 21.1953 5.9864 20.1627 7.03245C19.9282 7.27012 19.7446 7.20718 19.5396 6.99715C19.0693 6.51536 18.5959 6.03642 18.1116 5.5696C17.9714 5.43444 17.8476 5.23952 17.6103 5.24321C17.3976 7.02241 18.2508 8.64475 19.8464 9.61735C20.2943 9.89036 20.6008 9.87386 20.9809 9.48032C22.5565 7.84873 24.1559 6.24124 25.7579 4.63679C26.5293 3.86419 26.5162 3.89212 25.9459 2.97289C25.2414 1.83717 24.2429 1.1832 22.9725 0.978546C22.459 0.895817 21.9063 0.787563 21.3738 1.17989C21.7316 1.72007 22.2054 2.09547 22.6402 2.60616ZM43.7268 4.14326C43.9796 3.8956 44.2281 3.6429 44.4863 3.40133C44.9962 2.92421 45.0163 2.28808 45.1014 1.65669C44.2613 1.57685 43.6108 1.8034 43.1059 2.32006C42.6972 2.73822 42.2946 3.16314 41.8735 3.56774C41.6402 3.7919 41.5543 4.01172 41.7028 4.32611C41.8591 4.65722 41.9897 4.944 42.4352 4.97773C43.062 5.02518 43.3006 4.51771 43.7268 4.14326ZM38.3118 8.17636C36.9653 9.57029 35.6187 10.9642 34.2721 12.3582C34.2941 12.3803 34.316 12.4024 34.3378 12.4245C36.6071 10.0394 38.8764 7.65423 41.1457 5.2691C41.1483 5.27099 41.1511 5.27289 41.1538 5.27479C40.2249 6.22502 39.296 7.17525 38.3118 8.17636ZM34.3379 14.423C34.6508 14.4357 34.4874 14.2651 34.4137 14.1763C33.9052 13.5635 33.3923 12.9544 32.8698 12.3543C32.7592 12.2273 32.6262 12.094 32.4275 12.119C32.2344 13.0169 33.0029 13.9629 34.3379 14.423Z" fill="black"/>
<path d="M23.6044 23.9834C23.3313 24.2502 23.0702 24.2804 22.8575 23.9943C22.6707 23.743 22.815 23.534 23.0064 23.3386C24.6309 21.6801 26.2507 20.0165 27.8722 18.3548C27.9464 18.2787 28.0187 18.1993 28.1005 18.1328C28.2746 17.9912 28.4582 17.9917 28.6266 18.1382C28.8182 18.3048 28.8323 18.5138 28.6898 18.7138C28.5772 18.8717 28.4364 19.0098 28.301 19.1493C26.7454 20.7521 25.1883 22.3533 23.6044 23.9834Z" fill="black"/>
<path d="M37.683 24.0973C36.2012 22.667 34.8782 21.1335 33.5157 19.6391C30.6696 16.5179 27.7742 13.4465 24.7963 10.4575C24.5285 10.1888 24.0835 9.94195 24.1859 9.51888C24.3021 9.03962 24.8307 8.9695 25.2363 8.8174C25.6951 8.6454 26.0116 8.92584 26.3043 9.21336C27.353 10.2442 28.3942 11.2833 29.4339 12.3238C32.5784 15.4704 35.721 18.6191 38.8642 21.7674C39.0144 21.9178 39.1643 22.0688 39.3096 22.2244C39.919 22.8772 39.9724 23.3008 39.5203 23.8688C38.9616 24.5708 38.4669 24.6398 37.683 24.0973ZM29.5583 14.909C32.0932 17.6606 34.6278 20.4123 37.1632 23.1634C37.4637 23.4895 37.7656 23.8154 38.1516 24.0397C38.6554 24.3323 38.9753 24.0079 39.2826 23.6721C39.5773 23.3502 39.6107 22.9971 39.3123 22.6633C39.0411 22.3599 38.7426 22.0819 38.4549 21.794C34.4226 17.7601 30.3904 13.7262 26.3562 9.69422C26.1941 9.53219 26.0252 9.37037 25.8366 9.24482C25.5303 9.041 24.8327 9.15955 24.6385 9.47723C24.4056 9.85832 24.8045 10.0151 24.986 10.2042C26.4829 11.7644 27.9965 13.3076 29.5583 14.909Z" fill="black"/>
<path d="M42.0675 24.8557C42.5716 25.363 42.6946 25.9318 42.4194 26.5495C42.1742 27.1001 41.7305 27.3898 41.1278 27.386C40.5275 27.3823 40.0945 27.1034 39.8513 26.5362C39.6081 25.9691 39.7742 25.3004 40.2519 24.8825C40.7732 24.4266 41.3468 24.4099 42.0675 24.8557Z" fill="black"/>
</g>
<defs>
<clipPath id="clip0_302_3126">
<rect width="72" height="44" fill="white"/>
</clipPath>
</defs>
</svg>
