<svg width="330" height="196" viewBox="0 0 330 196" fill="none" xmlns="http://www.w3.org/2000/svg">
<g clip-path="url(#clip0_302_3152)">
<path d="M8.68084 193.626C6.87115 193.627 5.14902 193.633 3.42691 193.629C2.07664 193.626 1.79726 193.285 1.79717 191.625C1.79638 175.254 1.79744 158.882 1.79813 142.512C1.79815 141.874 1.79339 141.235 1.80228 140.598C1.81537 139.659 2.2287 139.17 2.98645 139.091C3.13139 139.075 3.27814 139.084 3.42405 139.084C13.1146 139.084 22.8051 139.083 32.4956 139.085C34.0897 139.086 34.3131 139.367 34.3146 141.297C34.3173 144.664 34.3238 148.03 34.3226 151.396C34.3222 152.888 34.0658 153.207 32.8368 153.209C27.1451 153.216 21.4533 153.214 15.7616 153.216C14.5136 153.216 14.5122 153.217 14.5112 154.765C14.5104 155.935 14.5516 157.107 14.5036 158.273C14.4646 159.222 14.7857 159.484 15.5315 159.48C20.9605 159.452 26.3896 159.465 31.8186 159.466C33.376 159.466 33.7486 159.882 33.7327 161.753C33.7057 164.941 33.8056 168.129 33.6351 171.316C33.5659 172.608 33.3402 172.945 32.2674 172.951C30.2535 172.964 28.2395 172.943 26.2256 172.94C22.723 172.936 19.2204 172.933 15.7178 172.933C14.6083 172.933 14.5222 173.038 14.517 174.382C14.5121 175.658 14.5612 176.937 14.5015 178.209C14.4559 179.179 14.7178 179.492 15.5329 179.486C21.2245 179.448 26.9163 179.464 32.608 179.463C34.1714 179.462 34.3162 179.631 34.3177 181.517C34.3203 184.99 34.3202 188.462 34.317 191.935C34.3157 193.329 34.0797 193.628 32.936 193.628C24.8802 193.632 16.8243 193.628 8.68084 193.626Z" fill="black"/>
<path d="M73.7208 175.504C73.999 181.817 72.6097 187.107 68.6571 190.951C66.5766 192.974 64.2443 194.274 61.7042 194.933C57.8455 195.934 54.0081 195.852 50.2298 194.346C44.5939 192.099 41.305 187.116 40.2328 179.601C40.1776 179.214 40.112 178.829 40.0785 178.439C39.9557 177.009 40.3431 176.419 41.4284 176.415C44.5052 176.405 47.5824 176.438 50.6586 176.385C51.4815 176.371 51.9093 176.749 51.9739 177.802C52.1756 181.092 54.2938 182.695 56.4433 182.87C57.7834 182.98 59.0807 182.769 60.2444 181.815C61.3624 180.899 61.9507 179.593 61.7937 177.845C61.6526 176.273 60.8079 175.417 59.7843 174.845C58.1858 173.95 56.4756 173.565 54.7832 173.115C52.4971 172.507 50.2263 171.855 48.0334 170.77C41.6582 167.619 39.8146 160.307 40.8144 153.251C41.6681 147.226 44.5647 143.286 48.833 141.151C54.4265 138.351 60.0799 138.211 65.5029 141.851C69.4799 144.519 71.6662 149.012 72.3032 154.776C72.3384 155.094 72.3936 155.41 72.4155 155.729C72.4835 156.728 72.0627 157.425 71.291 157.432C68.0767 157.459 64.8624 157.451 61.6486 157.439C60.9569 157.437 60.713 156.848 60.6578 156.036C60.4929 153.595 59.3068 152.031 57.438 151.852C56.5109 151.763 55.5723 151.67 54.6605 152.062C53.305 152.644 52.5617 153.724 52.505 155.196C52.436 157.005 52.904 157.972 54.3728 158.799C56.0955 159.77 57.9414 160.205 59.7575 160.761C61.9487 161.431 64.1265 162.146 66.2288 163.219C70.5258 165.415 73.212 169.265 73.7208 175.504Z" fill="black"/>
<path d="M96.2471 178.845C96.2572 183.144 96.274 187.316 96.2749 191.487C96.2754 193.381 95.9527 193.744 94.2607 193.748C90.0196 193.758 85.7781 193.757 81.5371 193.749C79.9396 193.746 79.6307 193.402 79.6307 191.665C79.6307 185.963 79.5204 180.262 79.5852 174.557C79.6849 165.705 79.5338 156.849 79.4907 147.994C79.4777 145.326 79.5046 145.257 81.8057 144.304C85.7738 142.66 89.7472 141.031 93.7264 139.418C95.5978 138.66 96.2433 139.139 96.2452 141.3C96.2538 153.772 96.2481 166.245 96.2471 178.845Z" fill="black"/>
<path d="M138.242 157.051C138.246 162.619 138.246 162.616 143.539 162.61C146.413 162.607 149.29 162.676 152.162 162.597C153.822 162.551 154.48 163.251 154.458 164.852C154.427 167.087 154.425 169.325 154.492 171.559C154.545 173.358 153.652 173.929 151.983 173.895C148.23 173.818 144.475 173.878 140.724 173.771C138.898 173.719 138.165 174.333 138.198 176.25C138.293 181.759 138.161 187.271 138.261 192.779C138.299 194.828 137.679 195.684 135.532 195.564C132.825 195.413 130.102 195.473 127.389 195.541C125.695 195.584 124.955 195.006 124.959 193.196C124.999 176.586 124.993 159.976 124.945 143.366C124.94 141.571 125.651 141.025 127.364 141.035C136.547 141.082 145.731 141.082 154.914 141.024C156.725 141.013 157.563 141.568 157.463 143.495C157.348 145.725 157.354 147.969 157.465 150.2C157.56 152.116 156.654 152.762 154.9 152.754C150.668 152.734 146.436 152.762 142.203 152.758C138.238 152.754 138.238 152.748 138.242 157.051Z" fill="black"/>
<path d="M176.418 145.558C176.412 157.535 176.453 169.276 176.363 181.016C176.346 183.196 177.002 183.98 179.225 183.904C183.532 183.757 187.85 183.9 192.161 183.83C194.002 183.799 194.773 184.492 194.679 186.37C194.571 188.521 194.572 190.686 194.676 192.837C194.77 194.759 194.108 195.555 192.08 195.536C183.295 195.453 174.509 195.457 165.724 195.509C163.85 195.521 163.19 194.808 163.205 192.964C163.265 186.096 163.223 179.227 163.221 172.358C163.218 163.013 163.214 153.669 163.215 144.324C163.216 141.09 163.222 141.085 166.348 141.069C168.265 141.059 170.182 141.065 172.099 141.064C176.449 141.06 176.449 141.06 176.418 145.558Z" fill="black"/>
<path d="M250.737 181.456C249.337 185.491 247.805 189.273 244.512 192.079C242.222 194.03 239.832 195.319 236.649 195.244C229.74 195.081 222.818 194.989 215.915 195.249C211.242 195.426 208.071 193.345 205.473 189.854C204.983 189.195 204.429 188.525 204.159 187.77C202.859 184.132 201.221 180.928 197.898 178.472C195.312 176.56 195.698 173.231 198.082 171.027C198.946 170.228 198.975 169.239 199.117 168.27C200.561 158.423 205.702 151.109 214.399 146.409C216.026 145.53 216.962 143.897 218.808 143.312C220.97 142.627 223.238 142.443 225.369 141.509C226.898 140.839 228.417 142.36 230.079 142.55C232.31 142.805 234.815 142.869 236.127 145.364C236.322 145.734 236.99 145.852 237.436 146.093C246.673 151.069 251.735 158.882 253.084 169.194C253.187 169.98 253.314 170.604 253.975 171.166C256.032 172.918 256.289 174.991 254.913 177.43C253.942 179.151 252.328 180.187 250.737 181.456ZM200.986 177.155C206.928 180.893 213.166 183.618 220.42 183.288C223.965 183.126 227.545 183.003 231.073 183.297C237.737 183.852 243.513 181.457 249.161 178.443C250.222 177.877 251.277 177.244 252 176.245C252.679 175.306 252.9 174.298 251.569 173.758C250.417 173.292 250.203 172.483 250.137 171.375C249.624 162.77 246.113 155.755 238.982 150.723C237.881 149.946 236.778 149.085 235.333 148.985C234.827 150.171 234.865 151.312 234.825 152.45C234.571 159.8 234.283 167.149 234.049 174.5C234.011 175.688 233.594 176.214 232.356 176.212C231.009 176.209 230.757 175.467 230.83 174.371C230.851 174.054 230.86 173.737 230.873 173.42C231.217 165.188 231.586 156.956 231.893 148.722C231.994 146.001 231.908 145.969 229.275 145.672C228.799 145.619 228.28 145.353 227.797 145.783C227.449 146.414 227.596 147.126 227.593 147.81C227.576 151.236 227.565 154.663 227.587 158.089C227.595 159.228 227.45 160.08 225.985 160.079C224.546 160.078 224.332 159.268 224.343 158.108C224.376 154.746 224.366 151.383 224.381 148.02C224.392 145.613 223.865 145.267 221.565 145.854C220.19 146.205 220.199 147.112 220.235 148.172C220.531 156.853 220.807 165.534 221.119 174.214C221.164 175.483 220.898 176.33 219.404 176.308C217.907 176.285 217.903 175.248 217.875 174.195C217.725 168.681 217.603 163.166 217.412 157.652C217.313 154.766 217.091 151.885 216.919 148.899C216.492 148.994 216.237 149.006 216.024 149.108C215.396 149.409 214.752 149.696 214.172 150.076C206.785 154.91 202.719 161.721 202.04 170.536C201.964 171.527 202.089 172.518 200.999 173.203C198.763 174.61 198.764 175.22 200.986 177.155ZM210.528 185.229C209.062 184.702 207.595 184.175 206.022 183.609C207.299 189.041 210.901 191.971 216.131 191.983C222.856 191.998 229.582 192.003 236.307 192.003C240.932 192.003 245.382 188.26 246.351 183.435C245.516 183.754 244.77 184.067 244.006 184.326C241.553 185.156 239.204 186.396 236.543 186.447C231.343 186.547 226.142 186.653 220.941 186.635C217.526 186.624 214.086 186.583 210.528 185.229Z" fill="black"/>
<path d="M206.07 161.157C207.316 158.473 208.931 156.213 210.766 154.088C211.461 153.283 212.043 153.231 212.846 153.9C213.681 154.598 213.876 155.195 213.066 156.101C211.325 158.047 209.935 160.246 208.75 162.575C208.262 163.535 208.075 164.945 206.38 164.156C204.703 163.376 205.66 162.305 206.07 161.157Z" fill="black"/>
<path d="M241.597 154.621C243.705 156.786 245.119 159.218 246.204 161.878C246.661 162.996 246.408 163.642 245.345 164.145C244.138 164.715 243.793 163.929 243.41 163.068C242.357 160.696 241.163 158.416 239.37 156.487C238.765 155.835 237.906 155.13 238.989 154.102C240.062 153.084 240.779 153.7 241.597 154.621Z" fill="black"/>
<path d="M306.796 173.362C309.004 163.379 311.193 153.573 313.287 143.749C313.705 141.787 314.528 140.89 316.66 141.024C319.446 141.2 322.252 141.101 325.048 141.045C326.702 141.012 327.414 141.476 326.921 143.3C322.405 160.011 317.926 176.731 313.466 193.457C313.079 194.91 312.367 195.611 310.788 195.548C308.395 195.452 305.98 195.351 303.601 195.561C300.979 195.793 299.837 194.908 299.236 192.234C297.187 183.127 294.839 174.088 292.598 165.025C292.466 164.491 292.259 163.977 291.995 163.174C290.92 164.386 290.839 165.744 290.546 166.955C288.428 175.719 286.324 184.487 284.341 193.282C283.967 194.94 283.273 195.588 281.62 195.546C278.745 195.473 275.865 195.456 272.991 195.54C271.354 195.588 270.541 194.971 270.134 193.363C265.969 176.885 261.747 160.423 257.554 143.952C256.863 141.24 256.994 141.086 259.78 141.063C262.497 141.041 265.222 141.177 267.929 141.012C269.972 140.888 270.488 141.966 270.842 143.639C272.872 153.232 274.961 162.813 277.043 172.395C277.259 173.386 277.555 174.358 278.2 175.369C279.636 168.957 281.081 162.548 282.506 156.134C283.492 151.698 284.486 147.263 285.396 142.811C285.654 141.549 286.28 141.053 287.516 141.064C290.313 141.088 293.113 141.141 295.906 141.03C297.616 140.962 298.312 141.721 298.655 143.291C300.693 152.638 302.786 161.973 304.867 171.31C305.161 172.63 305.487 173.943 305.933 175.831C306.32 174.734 306.532 174.134 306.796 173.362Z" fill="black"/>
<path d="M198.135 120.626C186.774 107.869 175.444 95.316 163.31 82.6476C162.741 87.8569 159.167 90.3882 156.201 93.3295C145.99 103.456 135.75 113.553 125.495 123.635C120.631 128.419 113.327 128.533 108.687 123.966C104.055 119.408 104.141 111.83 108.971 106.972C119.28 96.6023 129.661 86.3059 139.944 75.9107C142.939 72.8821 145.985 70.1552 150.527 70.5182C150.879 69.4612 150.216 69.0957 149.809 68.6804C143.93 62.6961 138.042 56.7276 131.644 51.2751C128.365 48.4805 124.42 47.278 120.545 45.8119C119.464 45.4028 118.885 46.082 118.272 46.6843C116.702 48.2258 115.034 48.3016 113.014 47.5048C101.478 42.9568 95.2948 29.7868 99.1003 17.9127C99.7694 15.8247 100.72 16.0054 101.971 17.1304C104.999 19.8533 108.038 22.5711 110.926 25.4382C112.29 26.7919 113.239 26.6587 114.476 25.3931C117.484 22.3151 120.56 19.3026 123.738 16.1344C120.102 11.5615 115.49 8.04021 111.99 3.17088C116.541 0.358611 121.163 -0.406104 126.025 0.188321C133.417 1.09221 139.313 4.49642 143.29 10.9366C143.499 11.2753 143.75 11.5898 143.996 11.9042C147.641 16.5642 147.654 17.1186 143.966 21.6645C143.416 22.3425 143.205 23.0399 143.243 23.8647C143.498 29.2908 144.25 34.3602 148.803 38.3148C153.194 42.1289 157.073 46.5318 161.197 50.6569C162.429 51.8894 163.726 53.0568 165.227 54.4749C165.759 52.0012 166.21 49.7289 169.021 49.3951C171.502 49.1006 173.217 50.5816 175.468 52.6011C178.195 49.6411 180.758 46.6926 183.497 43.9192C190.964 36.3595 198.492 28.8591 206.035 21.3752C207.114 20.3044 207.876 19.253 207.73 17.637C207.584 16.0235 208.312 14.7215 209.473 13.6042C212.293 10.8903 215.08 8.14227 217.871 5.39776C218.398 4.87961 218.977 4.50632 219.713 4.35352C223.228 3.62315 226.739 2.86949 230.341 2.68775C232.496 2.57899 232.769 3.17516 232.612 5.39205C232.056 13.3038 227.965 19.0007 221.894 23.6994C219.981 25.18 218.219 26.4797 215.702 26.2254C214.551 26.1091 213.756 26.7067 212.988 27.4726C205.012 35.4271 197 43.3456 189.046 51.3221C186.464 53.9114 183.514 56.142 181.216 59.0804C182.163 61.2424 184.696 62.4054 184.6 65.0379C184.518 67.2623 183.508 67.9572 179.078 68.5533C183.026 72.2203 186.795 75.7016 190.543 79.206C199.765 87.8262 209.228 96.1783 218.654 104.571C223.987 109.319 224.377 117.453 219.824 122.728C215.361 127.898 207.415 128.6 201.87 124.236C200.56 123.205 199.449 121.921 198.135 120.626ZM129.933 113.863C138.915 104.993 147.902 96.1279 156.873 87.2483C158.126 86.009 159.237 84.7415 159.266 82.7468C159.322 78.9984 156.902 77.0973 154.047 75.6815C151.038 74.19 147.841 73.7631 145.112 76.3251C142.669 78.619 140.448 81.1469 138.081 83.5243C129.289 92.3564 120.443 101.135 111.69 110.006C108.33 113.411 108.323 118.044 111.439 121.127C114.477 124.134 119.271 124.096 122.653 120.948C125.05 118.717 127.347 116.378 129.933 113.863ZM209.132 101.254C199.696 93.2254 190.682 84.7309 181.551 76.3649C168.934 64.8039 157.289 52.2664 145.097 40.2787C142.226 37.455 140.242 34.2054 139.854 30.0597C139.759 29.0427 139.935 27.8102 139.027 26.8617C133.936 32.1273 128.885 37.3514 123.757 42.655C130.872 44.2915 135.976 49.5826 141.204 54.5939C159.443 72.0793 176.598 90.6026 193.403 109.456C196.591 113.034 199.789 116.606 203.076 120.091C204.684 121.797 206.626 123.097 209.087 123.266C212.944 123.531 215.966 122.1 217.911 118.697C219.818 115.359 219.484 111.442 217.017 108.385C214.841 105.689 211.935 103.776 209.132 101.254ZM125.175 11.5899C126.163 12.634 127.144 13.6846 128.141 14.7202C129.026 15.6395 129.024 16.4641 128.074 17.3848C123.314 21.9944 118.572 26.6223 113.854 31.2742C112.782 32.3311 111.943 32.0512 111.007 31.1172C108.858 28.9746 106.694 26.8447 104.481 24.7687C103.841 24.1676 103.275 23.3008 102.191 23.3172C101.219 31.2295 105.117 38.4443 112.409 42.7696C114.455 43.9837 115.856 43.9103 117.592 42.1601C124.792 34.9043 132.101 27.7556 139.421 20.6204C142.946 17.1845 142.886 17.3088 140.28 13.2208C137.06 8.17013 132.498 5.26184 126.693 4.35171C124.347 3.98381 121.821 3.50239 119.388 5.24712C121.023 7.64935 123.188 9.3188 125.175 11.5899ZM221.529 18.4256C222.684 17.3242 223.819 16.2004 224.999 15.1261C227.329 13.0043 227.421 10.1754 227.81 7.36749C223.971 7.01245 220.999 8.01993 218.691 10.3176C216.824 12.1772 214.984 14.0669 213.06 15.8662C211.994 16.8631 211.602 17.8406 212.28 19.2387C212.994 20.7112 213.591 21.9866 215.627 22.1366C218.491 22.3476 219.581 20.0908 221.529 18.4256ZM196.785 36.3613C190.632 42.5603 184.479 48.7591 178.326 54.9583C178.426 55.0567 178.526 55.155 178.626 55.2533C188.995 44.6463 199.365 34.0393 209.734 23.4323C209.746 23.4408 209.759 23.4492 209.771 23.4577C205.527 27.6834 201.282 31.9092 196.785 36.3613ZM178.627 64.1411C180.056 64.1972 179.31 63.4385 178.973 63.0438C176.649 60.3187 174.306 57.61 171.918 54.9411C171.413 54.3761 170.805 53.7833 169.897 53.8946C169.015 57.8877 172.526 62.0947 178.627 64.1411Z" fill="black"/>
<path d="M129.583 106.657C128.335 107.844 127.142 107.978 126.17 106.706C125.316 105.588 125.976 104.659 126.85 103.79C134.274 96.4143 141.675 89.0161 149.084 81.6266C149.423 81.288 149.754 80.935 150.127 80.6391C150.923 80.0094 151.762 80.0118 152.532 80.6631C153.407 81.404 153.472 82.3335 152.82 83.2226C152.306 83.9252 151.663 84.5391 151.044 85.1597C143.935 92.2874 136.82 99.4084 129.583 106.657Z" fill="black"/>
<path d="M193.915 107.164C187.144 100.803 181.099 93.9832 174.872 87.3375C161.867 73.4571 148.637 59.7983 135.029 46.5057C133.806 45.3108 131.772 44.2131 132.241 42.3316C132.771 40.2003 135.187 39.8885 137.04 39.2121C139.137 38.4472 140.583 39.6943 141.92 40.973C146.712 45.5573 151.47 50.1782 156.221 54.8053C170.59 68.7988 184.95 82.8015 199.312 96.8022C199.998 97.4712 200.684 98.1427 201.347 98.8347C204.132 101.738 204.376 103.622 202.31 106.148C199.757 109.269 197.497 109.576 193.915 107.164ZM156.789 66.3021C168.373 78.5389 179.954 90.7761 191.54 103.011C192.913 104.461 194.292 105.91 196.056 106.908C198.358 108.209 199.82 106.766 201.224 105.273C202.571 103.841 202.723 102.271 201.36 100.787C200.121 99.4371 198.757 98.2012 197.442 96.9207C179.017 78.9815 160.592 61.0419 142.158 43.1114C141.417 42.3908 140.645 41.6712 139.783 41.1129C138.384 40.2065 135.196 40.7336 134.309 42.1464C133.244 43.8412 135.067 44.5386 135.896 45.3794C142.736 52.3177 149.653 59.1806 156.789 66.3021Z" fill="black"/>
<path d="M213.948 110.536C216.251 112.792 216.813 115.322 215.556 118.069C214.435 120.518 212.408 121.806 209.654 121.789C206.911 121.772 204.932 120.532 203.821 118.01C202.71 115.488 203.469 112.514 205.652 110.655C208.033 108.628 210.655 108.554 213.948 110.536Z" fill="black"/>
</g>
<defs>
<clipPath id="clip0_302_3152">
<rect width="329" height="195.673" fill="white" transform="translate(0.5)"/>
</clipPath>
</defs>
</svg>
