<svg width="112" height="92" viewBox="0 0 112 92" fill="none" xmlns="http://www.w3.org/2000/svg">
<path d="M96.0215 88.375C102.522 88.375 107.792 83.105 107.792 76.6042C107.792 65.6458 98.6027 61.0611 88.959 59.1445M70.1257 41.2917C80.527 41.2917 88.959 32.8597 88.959 22.4583C88.959 12.057 80.527 3.625 70.1257 3.625M15.9798 88.3756H67.7715C74.2723 88.3756 79.5423 83.1056 79.5423 76.6047C79.5423 57.3911 51.2923 57.7714 41.8757 57.7714C32.459 57.7714 4.20898 57.3911 4.20898 76.6047C4.20898 83.1056 9.47897 88.3756 15.9798 88.3756ZM60.709 22.4583C60.709 32.8597 52.277 41.2917 41.8757 41.2917C31.4743 41.2917 23.0423 32.8597 23.0423 22.4583C23.0423 12.057 31.4743 3.625 41.8757 3.625C52.277 3.625 60.709 12.057 60.709 22.4583Z" stroke="#E7E7E7" stroke-width="7.0625" stroke-linecap="round" stroke-linejoin="round"/>
</svg>
