<svg width="84" height="92" viewBox="0 0 84 92" fill="none" xmlns="http://www.w3.org/2000/svg">
<path d="M79.6673 50.7084V50.7555M79.6673 22.4583V38.9375M16.1048 88.3756H67.8965C74.3973 88.3756 79.6673 83.1056 79.6673 76.6047C79.6673 57.3911 51.4173 57.7714 42.0007 57.7714C32.584 57.7714 4.33398 57.3911 4.33398 76.6047C4.33398 83.1056 9.60397 88.3756 16.1048 88.3756ZM60.834 22.4583C60.834 32.8597 52.402 41.2917 42.0007 41.2917C31.5993 41.2917 23.1673 32.8597 23.1673 22.4583C23.1673 12.057 31.5993 3.625 42.0007 3.625C52.402 3.625 60.834 12.057 60.834 22.4583Z" stroke="#262626" stroke-width="7.0625" stroke-linecap="round" stroke-linejoin="round"/>
</svg>
