<svg width="842" height="113" viewBox="0 0 842 113" fill="none" xmlns="http://www.w3.org/2000/svg">
<g clip-path="url(#clip0_295_2597)">
<path d="M210.399 106.466C200.371 95.2063 190.371 84.1266 179.662 72.9454C179.16 77.5432 176.005 79.7773 173.388 82.3733C164.375 91.3111 155.337 100.223 146.286 109.122C141.993 113.343 135.547 113.444 131.451 109.414C127.363 105.39 127.439 98.7018 131.702 94.4139C140.801 85.2619 149.964 76.1742 159.039 66.9994C161.683 64.3263 164.371 61.9195 168.38 62.2399C168.691 61.307 168.105 60.9844 167.746 60.6179C162.557 55.336 157.361 50.0682 151.713 45.2558C148.819 42.7892 145.337 41.7279 141.918 40.434C140.963 40.0729 140.452 40.6723 139.911 41.2039C138.525 42.5645 137.054 42.6314 135.27 41.9281C125.088 37.914 119.631 26.2901 122.99 15.8098C123.581 13.967 124.42 14.1265 125.524 15.1195C128.196 17.5227 130.879 19.9214 133.428 22.452C134.631 23.6467 135.469 23.5292 136.56 22.4122C139.216 19.6955 141.93 17.0366 144.735 14.2403C141.526 10.2043 137.456 7.09635 134.367 2.79865C138.384 0.316513 142.463 -0.358431 146.754 0.166214C153.278 0.963991 158.482 3.96858 161.993 9.65274C162.177 9.95171 162.399 10.2292 162.616 10.5068C165.832 14.6197 165.844 15.109 162.589 19.1212C162.103 19.7196 161.917 20.3352 161.951 21.0632C162.175 25.8523 162.84 30.3266 166.858 33.8169C170.734 37.1833 174.158 41.0693 177.797 44.7101C178.884 45.798 180.029 46.8283 181.354 48.08C181.823 45.8966 182.221 43.8911 184.703 43.5965C186.893 43.3366 188.406 44.6437 190.393 46.4262C192.8 43.8136 195.061 41.2113 197.479 38.7634C204.07 32.0912 210.714 25.4713 217.372 18.8659C218.324 17.9208 218.996 16.9928 218.868 15.5665C218.739 14.1425 219.381 12.9933 220.406 12.0072C222.895 9.61185 225.355 7.18643 227.818 4.7641C228.283 4.30678 228.794 3.97731 229.444 3.84245C232.546 3.19782 235.645 2.53263 238.824 2.37223C240.726 2.27624 240.967 2.80242 240.829 4.75906C240.337 11.7421 236.727 16.7702 231.369 20.9172C229.68 22.2241 228.125 23.3712 225.903 23.1467C224.887 23.0441 224.186 23.5715 223.508 24.2475C216.469 31.2682 209.397 38.2572 202.377 45.2973C200.098 47.5826 197.494 49.5513 195.466 52.1448C196.302 54.053 198.537 55.0795 198.452 57.403C198.38 59.3662 197.489 59.9795 193.579 60.5057C197.063 63.7422 200.39 66.8148 203.698 69.9078C211.837 77.5161 220.189 84.8877 228.509 92.2953C233.216 96.4859 233.561 103.665 229.542 108.32C225.603 112.884 218.589 113.503 213.696 109.652C212.54 108.742 211.559 107.609 210.399 106.466ZM150.204 100.497C158.131 92.6678 166.063 84.8432 173.981 77.006C175.086 75.9122 176.067 74.7935 176.093 73.033C176.142 69.7245 174.006 68.0466 171.486 66.7971C168.831 65.4806 166.009 65.1039 163.601 67.3651C161.444 69.3897 159.484 71.6209 157.395 73.7191C149.635 81.5145 141.827 89.2628 134.102 97.092C131.136 100.097 131.13 104.186 133.88 106.908C136.562 109.561 140.792 109.528 143.778 106.749C145.893 104.78 147.921 102.716 150.204 100.497ZM220.105 89.3674C211.777 82.2815 203.821 74.7841 195.762 67.4003C184.626 57.1964 174.348 46.1307 163.588 35.5502C161.053 33.058 159.302 30.1899 158.96 26.5309C158.875 25.6333 159.031 24.5455 158.23 23.7083C153.736 28.3558 149.278 32.9666 144.752 37.6477C151.032 39.092 155.537 43.762 160.151 48.1849C176.249 63.6177 191.39 79.9665 206.222 96.6069C209.036 99.7643 211.858 102.917 214.76 105.993C216.179 107.499 217.893 108.646 220.065 108.795C223.47 109.029 226.137 107.767 227.853 104.763C229.537 101.816 229.241 98.3598 227.064 95.6617C225.143 93.282 222.579 91.5939 220.105 89.3674ZM146.004 10.2293C146.876 11.1508 147.742 12.0781 148.622 12.9921C149.403 13.8036 149.401 14.5314 148.562 15.3439C144.362 19.4124 140.176 23.497 136.012 27.6028C135.066 28.5357 134.325 28.2886 133.499 27.4643C131.602 25.5732 129.693 23.6934 127.739 21.861C127.174 21.3305 126.675 20.5654 125.718 20.58C124.86 27.5634 128.301 33.9312 134.736 37.7487C136.542 38.8203 137.779 38.7555 139.311 37.2109C145.666 30.8068 152.116 24.4973 158.577 18.1997C161.688 15.1672 161.635 15.2768 159.336 11.6688C156.494 7.21102 152.467 4.64414 147.344 3.84086C145.273 3.51614 143.044 3.09124 140.896 4.63115C142.339 6.75137 144.25 8.22485 146.004 10.2293ZM231.046 16.2626C232.066 15.2905 233.068 14.2986 234.109 13.3504C236.166 11.4777 236.247 8.98085 236.59 6.5026C233.202 6.18924 230.578 7.07845 228.542 9.10639C226.894 10.7477 225.27 12.4155 223.572 14.0036C222.631 14.8835 222.285 15.7463 222.883 16.9802C223.514 18.2799 224.04 19.4055 225.837 19.5379C228.365 19.7241 229.327 17.7323 231.046 16.2626ZM209.207 32.0928C203.777 37.564 198.346 43.0352 192.915 48.5066C193.004 48.5934 193.092 48.6802 193.18 48.767C202.332 39.4052 211.485 30.0434 220.637 20.6815C220.647 20.689 220.658 20.6964 220.669 20.7039C216.923 24.4336 213.177 28.1633 209.207 32.0928ZM193.181 56.6114C194.443 56.6609 193.783 55.9913 193.486 55.6429C191.435 53.2378 189.367 50.847 187.26 48.4914C186.814 47.9928 186.277 47.4696 185.476 47.5678C184.697 51.0921 187.796 54.8052 193.181 56.6114Z" fill="#141414"/>
<path d="M149.894 94.1367C148.793 95.1839 147.74 95.3024 146.882 94.1794C146.129 93.1932 146.711 92.3728 147.483 91.6058C154.034 85.096 160.567 78.5663 167.106 72.0443C167.406 71.7454 167.697 71.4339 168.027 71.1727C168.729 70.6169 169.47 70.6191 170.149 71.1939C170.922 71.8479 170.979 72.6682 170.404 73.453C169.95 74.0731 169.382 74.6149 168.836 75.1627C162.562 81.4536 156.282 87.7386 149.894 94.1367Z" fill="#141414"/>
<path d="M206.674 94.5836C200.698 88.9695 195.362 82.9503 189.867 77.0847C178.389 64.8338 166.712 52.7785 154.702 41.0463C153.622 39.9917 151.827 39.0228 152.24 37.3623C152.709 35.4812 154.84 35.2059 156.476 34.6089C158.327 33.9338 159.603 35.0345 160.783 36.1631C165.013 40.2092 169.212 44.2877 173.405 48.3716C186.087 60.7224 198.761 73.0812 211.438 85.4384C212.044 86.0289 212.648 86.6215 213.234 87.2323C215.692 89.7945 215.907 91.4572 214.084 93.6866C211.831 96.4419 209.836 96.7128 206.674 94.5836ZM173.907 58.5188C184.13 69.319 194.352 80.1197 204.578 90.9179C205.79 92.1979 207.007 93.4771 208.564 94.3576C210.596 95.506 211.886 94.2327 213.125 92.9146C214.314 91.651 214.449 90.2652 213.245 88.9551C212.151 87.764 210.948 86.6731 209.787 85.5429C193.525 69.7097 177.263 53.8761 160.993 38.0505C160.339 37.4145 159.658 36.7794 158.897 36.2866C157.662 35.4866 154.848 35.9519 154.065 37.1988C153.126 38.6946 154.735 39.3101 155.467 40.0523C161.504 46.176 167.608 52.2333 173.907 58.5188Z" fill="#141414"/>
<path d="M224.355 97.5604C226.388 99.5515 226.884 101.784 225.774 104.209C224.785 106.37 222.996 107.507 220.565 107.492C218.144 107.477 216.398 106.383 215.417 104.157C214.436 101.93 215.106 99.3056 217.033 97.6653C219.135 95.8761 221.449 95.8105 224.355 97.5604Z" fill="#141414"/>
<path d="M267.663 109.568C265.095 109.569 262.651 109.577 260.206 109.571C258.29 109.567 257.893 109.082 257.893 106.727C257.892 83.4912 257.894 60.2552 257.895 37.0199C257.895 36.1146 257.888 35.2086 257.9 34.304C257.919 32.9712 258.506 32.2769 259.581 32.1646C259.787 32.1428 259.995 32.155 260.202 32.155C273.956 32.155 287.71 32.153 301.464 32.1571C303.726 32.1578 304.043 32.5573 304.046 35.2957C304.049 40.0742 304.059 44.8519 304.057 49.6297C304.056 51.7466 303.692 52.2006 301.948 52.2027C293.87 52.2129 285.791 52.2095 277.713 52.2122C275.942 52.2129 275.94 52.2142 275.938 54.4115C275.937 56.0717 275.996 57.7346 275.928 59.3901C275.872 60.7365 276.328 61.1088 277.387 61.1033C285.092 61.0639 292.797 61.0816 300.503 61.0829C302.713 61.0836 303.242 61.6745 303.22 64.3298C303.181 68.8537 303.323 73.3796 303.081 77.9021C302.983 79.7358 302.663 80.2137 301.14 80.2232C298.282 80.2409 295.423 80.2116 292.565 80.2076C287.593 80.2014 282.622 80.1967 277.651 80.1967C276.076 80.1967 275.954 80.3457 275.947 82.2544C275.94 84.065 276.009 85.8797 275.925 87.6849C275.86 89.062 276.232 89.5064 277.388 89.4983C285.467 89.4438 293.545 89.467 301.623 89.4649C303.842 89.4642 304.048 89.7038 304.05 92.3803C304.054 97.3092 304.053 102.238 304.049 107.167C304.047 109.145 303.712 109.57 302.089 109.57C290.655 109.575 279.221 109.57 267.663 109.568Z" fill="#141414"/>
<path d="M359.975 83.8466C360.37 92.8065 358.398 100.315 352.788 105.77C349.836 108.641 346.525 110.487 342.92 111.422C337.443 112.843 331.997 112.726 326.634 110.589C318.635 107.4 313.967 100.327 312.446 89.6612C312.367 89.1125 312.274 88.5653 312.227 88.0117C312.052 85.982 312.602 85.1449 314.142 85.1393C318.509 85.1245 322.877 85.1717 327.243 85.097C328.411 85.0772 329.018 85.6139 329.11 87.1076C329.396 91.7769 332.402 94.0519 335.453 94.3016C337.355 94.4574 339.197 94.157 340.848 92.8037C342.435 91.5039 343.27 89.6499 343.047 87.1689C342.847 84.9376 341.648 83.7232 340.195 82.9108C337.926 81.6414 335.499 81.0941 333.097 80.4559C329.852 79.5927 326.629 78.6668 323.517 77.128C314.469 72.6554 311.852 62.2774 313.271 52.2625C314.483 43.7109 318.594 38.1192 324.652 35.0882C332.591 31.1149 340.615 30.9167 348.312 36.0818C353.956 39.8696 357.059 46.2462 357.963 54.4275C358.013 54.8789 358.092 55.3267 358.123 55.7801C358.219 57.1976 357.622 58.1871 356.527 58.1962C351.965 58.2343 347.403 58.223 342.841 58.2068C341.86 58.2033 341.513 57.3676 341.435 56.2153C341.201 52.7512 339.517 50.5311 336.865 50.2773C335.549 50.151 334.217 50.0184 332.923 50.5749C330.999 51.4014 329.944 52.9331 329.864 55.0234C329.766 57.5904 330.43 58.9628 332.515 60.137C334.96 61.515 337.58 62.1328 340.157 62.9212C343.267 63.8718 346.358 64.8867 349.342 66.4107C355.441 69.5264 359.253 74.9911 359.975 83.8466Z" fill="#141414"/>
<path d="M391.947 88.5876C391.961 94.6899 391.985 100.611 391.986 106.531C391.987 109.22 391.529 109.735 389.127 109.74C383.108 109.754 377.088 109.752 371.069 109.741C368.801 109.737 368.363 109.249 368.363 106.784C368.363 98.6903 368.206 90.5997 368.298 82.5022C368.44 69.9381 368.225 57.3685 368.164 44.8016C368.146 41.0143 368.184 40.9169 371.45 39.5637C377.082 37.2303 382.721 34.918 388.369 32.6296C391.025 31.5534 391.941 32.2327 391.944 35.2999C391.956 53.0019 391.948 70.7045 391.947 88.5876Z" fill="#141414"/>
<path d="M451.549 57.6555C451.556 65.5576 451.556 65.5535 459.068 65.5454C463.148 65.5406 467.23 65.6393 471.307 65.527C473.662 65.4623 474.597 66.4547 474.566 68.7276C474.522 71.9003 474.519 75.0757 474.614 78.247C474.689 80.7996 473.421 81.611 471.053 81.562C465.727 81.4524 460.397 81.5381 455.073 81.3863C452.481 81.3128 451.441 82.1841 451.488 84.9055C451.623 92.7232 451.434 100.547 451.577 108.365C451.631 111.273 450.75 112.488 447.704 112.317C443.862 112.103 439.997 112.188 436.146 112.285C433.743 112.346 432.692 111.526 432.698 108.957C432.754 85.382 432.745 61.807 432.678 38.2327C432.671 35.6842 433.679 34.9103 436.111 34.9232C449.145 34.9913 462.179 34.9899 475.213 34.9089C477.782 34.8926 478.972 35.6808 478.831 38.4152C478.667 41.5804 478.676 44.766 478.833 47.9319C478.968 50.6512 477.682 51.5688 475.193 51.5572C469.187 51.5279 463.18 51.5674 457.173 51.562C451.545 51.5572 451.545 51.5477 451.549 57.6555Z" fill="#141414"/>
<path d="M505.733 41.3437C505.726 58.3425 505.784 75.0065 505.656 91.669C505.632 94.7628 506.562 95.8757 509.717 95.7681C515.831 95.5592 521.959 95.7627 528.078 95.6626C530.692 95.6198 531.785 96.6027 531.651 99.2689C531.498 102.322 531.5 105.394 531.648 108.447C531.781 111.176 530.841 112.305 527.963 112.278C515.494 112.16 503.024 112.166 490.555 112.239C487.897 112.256 486.959 111.245 486.981 108.627C487.066 98.8789 487.006 89.1301 487.004 79.3812C486.999 66.118 486.994 52.8555 486.995 39.5923C486.996 35.0017 487.004 34.9956 491.442 34.9725C494.162 34.9582 496.883 34.967 499.604 34.965C505.778 34.9602 505.778 34.9602 505.733 41.3437Z" fill="#141414"/>
<path d="M611.215 92.2945C609.227 98.0212 607.054 103.389 602.38 107.371C599.129 110.141 595.737 111.97 591.219 111.863C581.414 111.632 571.588 111.501 561.792 111.871C555.16 112.122 550.659 109.169 546.971 104.213C546.275 103.278 545.489 102.328 545.106 101.256C543.261 96.0925 540.936 91.5442 536.22 88.0581C532.55 85.3456 533.097 80.6206 536.481 77.4919C537.707 76.3583 537.748 74.9545 537.95 73.5788C539.999 59.6032 547.296 49.2229 559.64 42.5519C561.95 41.3037 563.278 38.9858 565.897 38.1555C568.966 37.1831 572.186 36.922 575.209 35.5971C577.379 34.6462 579.535 36.8047 581.894 37.0744C585.061 37.4366 588.617 37.5269 590.479 41.0686C590.756 41.594 591.704 41.7616 592.337 42.1027C605.447 49.1662 612.632 60.2551 614.545 74.8902C614.691 76.0059 614.872 76.8913 615.81 77.6897C618.729 80.1757 619.094 83.1185 617.142 86.5797C615.764 89.022 613.473 90.4934 611.215 92.2945ZM540.602 86.19C549.036 91.4945 557.89 95.3627 568.185 94.8935C573.218 94.6643 578.298 94.4897 583.306 94.907C592.764 95.6951 600.962 92.2956 608.978 88.0171C610.483 87.2138 611.982 86.3159 613.007 84.8975C613.971 83.565 614.285 82.1342 612.395 81.3688C610.761 80.7071 610.456 79.5584 610.363 77.9865C609.635 65.7726 604.652 55.8166 594.53 48.6742C592.967 47.5715 591.403 46.3498 589.351 46.2082C588.633 47.8904 588.687 49.5099 588.631 51.1262C588.27 61.5579 587.862 71.9879 587.529 82.4207C587.475 84.1078 586.883 84.8543 585.127 84.8505C583.215 84.8467 582.857 83.7942 582.961 82.238C582.99 81.7888 583.003 81.3385 583.022 80.8887C583.51 69.2041 584.034 57.521 584.469 45.8341C584.613 41.9724 584.49 41.9275 580.753 41.5059C580.078 41.4297 579.342 41.0529 578.656 41.6627C578.162 42.5589 578.371 43.5687 578.366 44.5401C578.342 49.4029 578.326 54.2663 578.358 59.1286C578.369 60.746 578.164 61.9552 576.084 61.9536C574.042 61.9519 573.738 60.8027 573.753 59.1567C573.8 54.3841 573.786 49.611 573.808 44.8379C573.824 41.4216 573.075 40.9308 569.811 41.7638C567.859 42.2621 567.872 43.5487 567.923 45.0536C568.343 57.3745 568.734 69.696 569.177 82.0158C569.242 83.8164 568.865 85.0191 566.744 84.9872C564.619 84.9554 564.614 83.4823 564.573 81.9888C564.361 74.162 564.188 66.3342 563.917 58.5091C563.775 54.4133 563.461 50.324 563.216 46.085C562.611 46.2207 562.248 46.2374 561.947 46.3823C561.055 46.8093 560.142 47.2169 559.317 47.7558C548.833 54.6166 543.062 64.2834 542.099 76.7951C541.99 78.2016 542.168 79.6076 540.621 80.5806C537.447 82.578 537.449 83.4429 540.602 86.19ZM554.146 97.6487C552.065 96.9006 549.983 96.1525 547.75 95.3497C549.563 103.059 554.675 107.218 562.098 107.235C571.644 107.257 581.189 107.264 590.734 107.264C597.298 107.264 603.614 101.951 604.989 95.1022C603.805 95.5551 602.746 96 601.661 96.3676C598.18 97.546 594.846 99.3055 591.069 99.378C583.689 99.5191 576.307 99.6704 568.926 99.645C564.078 99.6288 559.196 99.5715 554.146 97.6487Z" fill="#141414"/>
<path d="M547.818 63.4836C549.586 59.6749 551.878 56.4672 554.482 53.4503C555.469 52.3076 556.296 52.2336 557.435 53.1844C558.62 54.1747 558.898 55.0218 557.748 56.3072C555.276 59.07 553.304 62.1912 551.622 65.4967C550.929 66.8583 550.664 68.8606 548.258 67.7405C545.878 66.6324 547.236 65.1123 547.818 63.4836Z" fill="#141414"/>
<path d="M598.242 54.2063C601.235 57.2799 603.241 60.7314 604.782 64.5066C605.429 66.0937 605.071 67.011 603.562 67.724C601.848 68.5338 601.359 67.417 600.816 66.1953C599.322 62.8293 597.627 59.5929 595.082 56.855C594.223 55.9301 593.004 54.9296 594.542 53.4706C596.064 52.0251 597.081 52.8992 598.242 54.2063Z" fill="#141414"/>
<path d="M690.781 80.8058C693.915 66.6366 697.021 52.7199 699.993 38.7754C700.586 35.9907 701.754 34.7178 704.781 34.9091C708.735 35.1582 712.718 35.018 716.686 34.9383C719.033 34.8914 720.044 35.5503 719.345 38.1383C712.934 61.8562 706.578 85.5884 700.248 109.327C699.698 111.389 698.687 112.384 696.447 112.295C693.05 112.159 689.622 112.015 686.246 112.314C682.524 112.643 680.904 111.386 680.05 107.592C677.142 94.666 673.811 81.8357 670.629 68.9727C670.442 68.2158 670.148 67.4854 669.774 66.3467C668.247 68.0661 668.132 69.9931 667.717 71.7118C664.711 84.1514 661.724 96.5958 658.91 109.079C658.379 111.432 657.394 112.352 655.048 112.292C650.967 112.188 646.88 112.164 642.8 112.284C640.477 112.352 639.323 111.476 638.746 109.193C632.835 85.8069 626.842 62.4416 620.891 39.0647C619.911 35.2154 620.096 34.9962 624.051 34.9635C627.907 34.9322 631.774 35.1262 635.616 34.8921C638.516 34.7151 639.248 36.2459 639.75 38.6195C642.632 52.2353 645.597 65.8334 648.552 79.4336C648.858 80.8399 649.279 82.2203 650.194 83.6545C652.233 74.5544 654.284 65.4577 656.306 56.3542C657.705 50.0578 659.115 43.7628 660.408 37.4446C660.774 35.6537 661.662 34.9492 663.416 34.9649C667.386 34.9996 671.36 35.0751 675.324 34.9172C677.751 34.8199 678.739 35.8981 679.225 38.1253C682.119 51.3919 685.09 64.6409 688.042 77.8939C688.46 79.7671 688.922 81.6308 689.556 84.31C690.105 82.754 690.406 81.9017 690.781 80.8058Z" fill="#141414"/>
</g>
<defs>
<clipPath id="clip0_295_2597">
<rect width="841.562" height="112.364" fill="white"/>
</clipPath>
</defs>
</svg>
